<?xml version="1.0" standalone="no"?><!DOCTYPE svg PUBLIC "-//W3C//DTD SVG 1.1//EN" "http://www.w3.org/Graphics/SVG/1.1/DTD/svg11.dtd"><svg t="1500639930754" class="icon" style="" viewBox="0 0 1024 1024" version="1.1" xmlns="http://www.w3.org/2000/svg" p-id="4193" xmlns:xlink="http://www.w3.org/1999/xlink" width="128" height="128"><defs><style type="text/css"></style></defs><path d="M512.001824 962.20654c-255.778023 0-463.828006-208.051199-463.828006-463.829222 0-255.74275 208.049983-463.821924 463.828006-463.821924 255.743967 0 463.823141 208.079174 463.823141 463.821924C975.824965 754.104256 767.745791 962.20654 512.001824 962.20654L512.001824 962.20654z" p-id="4194" fill="#e6e6e6"></path><path d="M692.513312 799.234256 331.489121 799.234256c-33.245426 0-60.172117-26.927907-60.172117-60.169685L271.317003 257.698578c0-33.24421 26.927907-60.172117 60.172117-60.172117l361.024191 0c33.242994 0 60.170901 26.927907 60.170901 60.172117l0 481.365993C752.682997 772.306349 725.756305 799.234256 692.513312 799.234256L692.513312 799.234256zM722.59633 257.698578c0-16.608726-13.475509-30.085451-30.083018-30.085451L331.489121 227.613128c-16.608726 0-30.085451 13.477941-30.085451 30.085451l0 481.365993c0 16.607509 13.476725 30.081802 30.085451 30.081802l361.024191 0c16.607509 0 30.083018-13.474292 30.083018-30.081802L722.59633 257.698578 722.59633 257.698578zM331.489121 257.698578l361.024191 0 0 391.107209L331.489121 648.805787 331.489121 257.698578 331.489121 257.698578zM361.572139 618.722769l300.855722 0L662.427861 287.782812 361.572139 287.782812 361.572139 618.722769 361.572139 618.722769zM602.255744 438.211282c-16.606293 0-30.083018-13.480374-30.083018-30.086667 0-16.606293 13.476725-30.083018 30.083018-30.083018s30.085451 13.476725 30.085451 30.083018C632.341194 424.730908 618.862037 438.211282 602.255744 438.211282L602.255744 438.211282zM512.000608 438.211282c-16.607509 0-30.086667-13.480374-30.086667-30.086667 0-16.606293 13.479158-30.083018 30.086667-30.083018 16.605077 0 30.086667 13.476725 30.086667 30.083018C542.087275 424.730908 528.605685 438.211282 512.000608 438.211282L512.000608 438.211282zM421.744256 438.211282c-16.606293 0-30.085451-13.480374-30.085451-30.086667 0-16.606293 13.479158-30.083018 30.085451-30.083018 16.607509 0 30.086667 13.476725 30.086667 30.083018C451.830923 424.730908 438.351766 438.211282 421.744256 438.211282L421.744256 438.211282zM436.78759 678.89367l150.426037 0c8.306187 0 15.042117 6.739579 15.042117 15.042117l0 30.085451c0 8.303755-6.73593 15.043333-15.042117 15.043333L436.78759 739.064571c-8.302538 0-15.043333-6.739579-15.043333-15.043333l0-30.085451C421.744256 685.633249 428.483835 678.89367 436.78759 678.89367L436.78759 678.89367zM436.78759 678.89367" p-id="4195" fill="#e6e6e6"></path></svg>