<svg xmlns="http://www.w3.org/2000/svg" viewBox="0 0 910.01 227.02"><defs><style>.cls-1{fill:#003778;}.cls-2{fill:#040000;}</style></defs><title>资源 1</title><g id="图层_2" data-name="图层 2"><g id="图层_1-2" data-name="图层 1"><rect class="cls-1" x="145.86" y="90.83" width="1.08" height="0.17"/><path class="cls-1" d="M139.13,132.41l-8.39-1.55-10.5,2.2,2.16-2.16,9.07-2.84,9.29,2.88Zm-6.51,28.66-1-4.79,2.8-11.11.05,0v-.07l3.46-.51,2.51,17.07C138,161.47,135.35,161.24,132.62,161.07Zm-17.78-22.85,7.83,1.93,10.52-4,5.88,2.9L133.2,138l-10.88,4ZM92.54,157,88.7,146l-5.37-1.61,9-2.76,3.56,11.65,21.66-3.23Zm-4-34.41h1v5.87h-1Zm2.31.12h5.39v5.76H90.84ZM77.72,108.59H70.77V69.52h7.32v-.46h9.16a5.52,5.52,0,0,0,.14.76l-7.53,3-.17-.42h0l-1,.39,1.77,4.24.91-.37-.2-.54,7.5-3c.17.27.35.53.52.76l-5.59,5.63-.34-.33h0l-.72.73,3.28,3.21.72-.73-.41-.4,5.57-5.6a7.21,7.21,0,0,0,.77.49l-2.93,7.44L89,84.14h0l-.36.93,4.25,1.69.37-.94-.46-.17,2.93-7.39a9.29,9.29,0,0,0,1,.19v7.86h-.5v22.27Zm-8.21,0H68.15V69.52h1.36ZM88.18,72.15l.2.37L81.5,75.34l-.19-.39ZM80.94,59.42l.17-.41,7.74,3.22-.17.41ZM91.13,75.2c.14.13.32.29.52.45l-6,5.43-.21-.23Zm-6-22.26,1,.24,5.72,5.59-.58.59ZM94.7,77.37l.55.19L92.1,85.13l-.53-.2Zm-3.3-28.8.88,1.63,3.42,6.66-.8.23Zm7,73.43h0l1,1v5.42H98.44Zm0-9.64h0l1,1v4.71H98.44Zm0-26H99V78L99.5,78v8.32h0v22.34h-1Zm.61-39.12h.48v9.39l-.48,0ZM102,60.48a2.37,2.37,0,1,1-2.36,2.38A2.38,2.38,0,0,1,102,60.48Zm4.59,24-.33.13L103.11,77l.76-.43Zm.33-10.56,5.81,5.86-.41.39-5.75-5.82Zm1.89-3.76,7.52,3.19-.18.44-7.48-3.17A2.67,2.67,0,0,1,108.77,70.16Zm8.85-4.36h22.66v.87H117.62Zm19-6.68.67,5.81h-.54l-.47-6.13Zm2.6,2.78,6.3,3.77v.41l-6.3-3.1Zm9.59,5,.19.94-7.08,1.46-1-.41Zm4.52,1.44-6.54,8.37-.59-.8,6.54-8.38Zm3.79.74-3.51,10.81-.49-.16,3.58-11.1Zm3.25-.6H161v14h-.68Zm-59.46,44.67h2.26v5h-2.26Zm3.48-1.62,1.05-.74v8.41l-1.05-.66Zm29-4.37v-5.77l.7.17.41,4.79,3.49,6.62Zm12.21-15.94V88.83h.87l1.92,1.85-.43,3.3-2.09,1.43H145V93.84h1.13v-.47H145V91.21Zm2.18,6.4h-1.35V95.87L149,94.5Zm1.59,65.18,3.06-16.12-.83-6-2.64,11.16h-1.39v-10l4.28-3.16,2-17.61-8.14,19H145l0-11.68,2.62-7.1-5-4.31,4.89-5.09,1.55.84L147,116.84l5,4.12,7.17-5.34,5.28-18.39-2.25-8,3.17-2.53.79-1.52-.14.06v0l-5.43,2.1-1,11.83-9.55.46,10.27,1.07-10.52,1.7,1.32,3.59-2,2.29-4.42-1.74-4,2.1-2.12-2.53,2.78-7.84h1.15l.65,6.69,1.58-4.81,4,.3-1.65-.75,2.57-.19-.77-1.73,1.61-2.35.59-5.23-3.59-2.93-2.8.07-2.37,2-.74-14.7-.69-.88-.7,24.1-1.73,3s-.19-.45-.69-2,.26-6,.26-6l1.73-18.69L138.42,76l-.93,11.44-4.25,3-1.14,6.21,1.7-4.72,3.17-1.8-.34,3.13-2.28,1.33L130.16,100l-.52,9.44,9.44,8.1-2,5.19,7.74,5.66-1.75,1.24-8.67-4.55,2.68-2.35-16.85-2L111.64,125v7.18h-5.53L104,128.41h-3.09v-5.76h4.74a1.9,1.9,0,0,0,1.9-1.91v-.67h0v-6.94h0v-2.63a1.92,1.92,0,0,0-1.89-1.92.29.29,0,0,0-.11,0h-4.67V86.31h-.57v-7.9c.36-.07.68-.13,1-.22l2.84,7.45-.54.2h0l.37,1,4.3-1.65-.36-.94-.45.17-2.93-7.64c.23-.14.44-.29.66-.44L111,82l-.4.41h0l.74.71,3.21-3.27-.72-.71-.3.33-5.87-5.71c.17-.23.3-.45.45-.68l7.74,3.14-.22.51v0l.94.37,1.72-4.27-.93-.38-.19.45-7.74-3.14c.05-.23.1-.47.14-.7h8.07v.42h21.12a4.41,4.41,0,0,0,.31,1.31c.38.95.9,1.63,1.18,1.51l0,0h0l7.37-2.79h2.29l-5.19,7.08h0c-.19.25.33.94,1.15,1.53s1.65.87,1.81.62c0,0,0,0,0,0l7.42-9.19h0l-3.68,11.13h0l0,0c-.11.32.65.89,1.7,1.28s1.9.44,2.1.18h0v0l0,0s0,0,0,0l4.14-12.55h.08v13.9h0c.08.29,1,.52,2.07.52s2-.24,2.06-.52h0v0h0V69.48h1.61V66.71H149v-.88h16.22v-.89h-16.5c-1.64-.25-5.92-1.15-8.74-4-3.89-4-4-6.79-4-6.79l-.78-.06V64.93h-.78V54H133V64.93H117.62v.53h-8.07a11.28,11.28,0,0,0-9.29-9.33V47h.56V46H96.16v1h.57v9.06c-.29,0-.59.1-.9.17L92.46,48l.48-.2h0l-.39-.93L88.32,48.6l.36.93.53-.21,3.36,8.26a6.06,6.06,0,0,0-.67.44l-6.24-6.19.35-.37h0l-.71-.7L82.07,54l.71.71.41-.4,6.16,6.12-.5.72L80.92,58l.21-.51,0,0-.92-.37-1.73,4.26.92.38.2-.48,7.86,3.21a5.62,5.62,0,0,0-.21,1H78.09V65h-10a1.91,1.91,0,0,0-1.9,1.92.39.39,0,0,0,0,.08v2.08h0v39.53h0v2.64a1.9,1.9,0,0,0,1.9,1.91H96.23v5H88.1A1.9,1.9,0,0,0,86.19,120v2.63h0v5.76H72.54l0,11.54,3.86,4.18,0,7.85,4.4,1.81v10.74c-19.53,3.66-26.79,8.12-27.51,8.23-.94.17,3.5.87,9.88,3.86,8,3.71,6.88,5.77,6.88,5.77s14-8.95,44-14.21c15.61-2.75,43.93-3.91,54.43-1.95C168.5,166.24,160.47,164.41,149.28,162.79Z"/><path class="cls-1" d="M113.52,223.7A110.37,110.37,0,1,1,223.88,113.31,110.4,110.4,0,0,1,113.52,223.7Zm0-223.7A113.51,113.51,0,1,0,227,113.52,113.52,113.52,0,0,0,113.52,0Z"/><path class="cls-1" d="M31.09,73.69A4.25,4.25,0,0,0,28,73.33a3.26,3.26,0,0,0-1.89,1.85A3.15,3.15,0,0,0,26,77.86a4.25,4.25,0,0,0,2.37,2.08,4.25,4.25,0,0,0,3.15.32,3.39,3.39,0,0,0,2-4.47A4.36,4.36,0,0,0,31.09,73.69Z"/><path class="cls-1" d="M103.46,174.09v9.24h-2.57v-6.05a7.38,7.38,0,0,1-1.19.76,8.57,8.57,0,0,1-1.45.55v-2a6.18,6.18,0,0,0,2-1,4.32,4.32,0,0,0,1.13-1.45Z"/><path class="cls-1" d="M110.65,177.23a1.72,1.72,0,0,0-.38-1.16,1.17,1.17,0,0,0-.9-.41,1.11,1.11,0,0,0-.85.37,1.64,1.64,0,0,0-.33,1.13,1.77,1.77,0,0,0,.35,1.17,1.12,1.12,0,0,0,.87.4,1.15,1.15,0,0,0,.88-.39A1.67,1.67,0,0,0,110.65,177.23Zm-4.66,4,2.51-.31a1.24,1.24,0,0,0,.34.74.83.83,0,0,0,.57.22,1.07,1.07,0,0,0,1-.62,5.79,5.79,0,0,0,.37-1.91,3.29,3.29,0,0,1-.93.68,2.66,2.66,0,0,1-1.09.22,2.79,2.79,0,0,1-2.07-.87,3.06,3.06,0,0,1-.84-2.2,3.23,3.23,0,0,1,.43-1.65,2.76,2.76,0,0,1,1.18-1.12,4,4,0,0,1,1.88-.38,4.59,4.59,0,0,1,2.19.46,3.41,3.41,0,0,1,1.3,1.49,6.14,6.14,0,0,1,.5,2.7,5.29,5.29,0,0,1-1,3.6,3.64,3.64,0,0,1-2.87,1.15,4.63,4.63,0,0,1-1.71-.25,2.89,2.89,0,0,1-1.05-.74A3.3,3.3,0,0,1,106,181.28Z"/><path class="cls-1" d="M115,174.23h6v2H117l-.22,1.37a5.4,5.4,0,0,1,.84-.3,3.53,3.53,0,0,1,.81-.1,3.06,3.06,0,0,1,2.22.82,2.78,2.78,0,0,1,.85,2.07,3.4,3.4,0,0,1-.44,1.69,2.86,2.86,0,0,1-1.24,1.25,4.23,4.23,0,0,1-2,.43,6.17,6.17,0,0,1-1.55-.18,2.92,2.92,0,0,1-1.81-1.27,3.88,3.88,0,0,1-.47-1.07l2.54-.28a1.54,1.54,0,0,0,.44.93,1.13,1.13,0,0,0,.82.33,1.17,1.17,0,0,0,.88-.4,1.91,1.91,0,0,0,.33-1.2,1.74,1.74,0,0,0-.35-1.2,1.2,1.2,0,0,0-.92-.38,1.41,1.41,0,0,0-.7.18,2.08,2.08,0,0,0-.56.48l-2.15-.31Z"/><path class="cls-1" d="M124.62,176.87l-2.4-.43a3,3,0,0,1,1.14-1.75,4.13,4.13,0,0,1,2.4-.6,3.91,3.91,0,0,1,2.55.66,2.09,2.09,0,0,1,.81,1.67,1.92,1.92,0,0,1-.32,1.05,2.81,2.81,0,0,1-1,.85,2.83,2.83,0,0,1,.8.3,2,2,0,0,1,.71.73,2.2,2.2,0,0,1,.25,1.08,3,3,0,0,1-.41,1.53,2.74,2.74,0,0,1-1.21,1.12,4.42,4.42,0,0,1-2,.4,5.29,5.29,0,0,1-2-.29,3,3,0,0,1-1.16-.86,3.66,3.66,0,0,1-.71-1.41l2.52-.33a1.85,1.85,0,0,0,.44,1.05,1.13,1.13,0,0,0,.79.3,1.08,1.08,0,0,0,.85-.37,1.44,1.44,0,0,0,.34-1,1.42,1.42,0,0,0-.33-1,1.16,1.16,0,0,0-.88-.35,3.55,3.55,0,0,0-.81.15l.13-1.8.33,0a1.14,1.14,0,0,0,.82-.31,1,1,0,0,0,.32-.75.89.89,0,0,0-.23-.65.93.93,0,0,0-.67-.25,1,1,0,0,0-.74.26A1.61,1.61,0,0,0,124.62,176.87Z"/><polygon class="cls-1" points="59.69 183.91 60.87 183.6 62.04 183.27 61.33 182.93 60.75 182.65 59.69 183.91"/><path class="cls-1" d="M77.62,29.18A1.37,1.37,0,0,0,78,27.47a1.38,1.38,0,0,0-.72-.75,1.72,1.72,0,0,0-1.12,0c-.21.07-.82.31-1.81.76l-1.92.85,1.23,2.79,1.82-.8A12.25,12.25,0,0,0,77.62,29.18Z"/><path class="cls-1" d="M191.18,67a1.46,1.46,0,0,0,.83.38,1.43,1.43,0,0,0,.91-.24,1.36,1.36,0,0,0,.65-.82,1.72,1.72,0,0,0-.13-1.11c-.09-.2-.42-.77-1-1.7l-1.1-1.79-2.6,1.61,1,1.69A11.87,11.87,0,0,0,191.18,67Z"/><polygon class="cls-1" points="28.91 84.57 24.06 85.01 27.8 88.09 28.91 84.57"/><path class="cls-1" d="M124.42,204.1a1.56,1.56,0,0,0-.89.39c-.54.4-.46.63-.46.63a8.94,8.94,0,0,1-.25,1.13,1.5,1.5,0,0,0-.07.91,6.25,6.25,0,0,0,.32.74,7.12,7.12,0,0,0,1.7,1.37,1.46,1.46,0,0,0,.83.2,4.35,4.35,0,0,1,.64,0,1,1,0,0,0,.87-.88c-.14-.3.26-.73.26-.73a.54.54,0,0,0,.16-.47,5,5,0,0,1-.27-1.13,9.4,9.4,0,0,1-1.28-.95c-.65-.85.07-1,.07-1a.66.66,0,0,0,.51-.06c.47-.07.33-.8.33-.8a.91.91,0,0,1,0-.63c.13-.7-.06-.76-.06-.76-.33-.53-.64.13-.64.13a7.34,7.34,0,0,1-1.33,1.25,3.21,3.21,0,0,1-.2.26C124.49,204.07,124.42,204.1,124.42,204.1Z"/><path class="cls-1" d="M77.63,194l.42,1.16a.88.88,0,0,1,.09.46c.29.46.11.2.2.71.16.09.16-.06.24-.22-.06-.37-.11-1-.23-1.5a3.4,3.4,0,0,0-.13-.6C78.09,194,77.76,194,77.63,194Z"/><path class="cls-1" d="M73.33,197.17c.23.13.87-.12,1.16-.13a8.17,8.17,0,0,0,2.89-.65.5.5,0,0,0,.26-.23l-.07-.11c-.07-.11-.13-.24-.19-.33C76.26,196.46,74.12,196.68,73.33,197.17Z"/><path class="cls-1" d="M135.21,30.43a3.53,3.53,0,0,0,2.82-.34,4.41,4.41,0,0,0,1.84-2.81,4.34,4.34,0,0,0-.16-3.29,4,4,0,0,0-5.17-1.39,4.4,4.4,0,0,0-1.81,2.78,4.32,4.32,0,0,0,.19,3.31A3.61,3.61,0,0,0,135.21,30.43Z"/><path class="cls-1" d="M113.46,6.72A106.18,106.18,0,1,0,219.64,112.9,106.19,106.19,0,0,0,113.46,6.72ZM208.6,107.51l-2,.22-.78-7.14-2.67.29.73,6.64-2,.22-.72-6.64-3.27.37.82,7.4-2,.22L195.47,99l12-1.32ZM194.65,63.16A10.6,10.6,0,0,1,196,66a3,3,0,0,1-.17,1.93,3.28,3.28,0,0,1-1.32,1.49,3,3,0,0,1-2.38.43,4.46,4.46,0,0,1-2.33-1.67,6.37,6.37,0,0,1-.11,1.76,13.64,13.64,0,0,1-.88,2.33l-1.17,2.63L186,72.13l1.22-3A17.4,17.4,0,0,0,188,67a2.06,2.06,0,0,0,0-1,4.76,4.76,0,0,0-.59-1.22l-.29-.47L182.77,67l-1.4-2.29,10.32-6.34ZM183.28,47.88,190,56l-1.58,1.3-2.5-3-7.75,6.42-1.72-2.06,7.75-6.42-2.5-3ZM181.44,46,180,47.47l-5.28-4.87-1.82,2,4.91,4.52-1.38,1.51-4.91-4.53-2.23,2.42,5.48,5-1.39,1.5L166,48.19l8.21-8.91ZM163.22,31.38l3.54,2.45a17,17,0,0,1,2.53,2,3.5,3.5,0,0,1,.9,2.07,3.54,3.54,0,0,1-.7,2.38,3.71,3.71,0,0,1-1.43,1.3,3.45,3.45,0,0,1-1.61.33,4.35,4.35,0,0,1-1.48-.31,18,18,0,0,1-2.39-1.45l-1.45-1-2.59,3.75-2.21-1.53Zm-7.68-4.26L154.73,29l-5.94-2.6L147.64,29l5.14,2.24L152,33.16l-5.13-2.24-2.06,4.7-2.46-1.07,4.85-11.1ZM130,24.73a7.09,7.09,0,0,1,1.4-2.85,5.8,5.8,0,0,1,1.63-1.29,5.41,5.41,0,0,1,2-.6,7.8,7.8,0,0,1,2.9.29A6.6,6.6,0,0,1,142,23.13a6.06,6.06,0,0,1,.49,4.94,6.06,6.06,0,0,1-2.9,4,7.53,7.53,0,0,1-9.11-2.47A6,6,0,0,1,130,24.73Zm-14.77-7.57,2.84,5,3.32-4.62,3.09.18-5.27,6.74L119,29.51l-2.68-.16.28-5.08L112.09,17Zm-4.59-.09.15,2-3.91.31.78,10-2.68.21-.77-10-3.91.31-.16-2ZM97.89,18.34l2,11.93-2.64.46-2-11.95ZM83.35,23.19a3.6,3.6,0,0,1,1.27-1.63A7.54,7.54,0,0,1,87,20.45a6.07,6.07,0,0,1,3.91,0,3.38,3.38,0,0,1,2,2.22l-2.56.81a2,2,0,0,0-1.06-1.1,2.93,2.93,0,0,0-1.75.07,3.23,3.23,0,0,0-1.65.9.86.86,0,0,0-.21.83.87.87,0,0,0,.58.61,7.41,7.41,0,0,0,2.58.14,14.59,14.59,0,0,1,3,.08,3.59,3.59,0,0,1,1.74.81,3.52,3.52,0,0,1,.93,3.78,3.73,3.73,0,0,1-1.37,1.79,8.07,8.07,0,0,1-2.68,1.2,6.13,6.13,0,0,1-4,0A4.4,4.4,0,0,1,84.1,30l2.46-.92A2.79,2.79,0,0,0,88,30.52a3.17,3.17,0,0,0,2,0,3.27,3.27,0,0,0,1.76-1,1.44,1.44,0,0,0,.33-1.3,1,1,0,0,0-.46-.62,2.28,2.28,0,0,0-1.07-.25c-.34,0-1.08,0-2.22,0a7.59,7.59,0,0,1-3.24-.36,3.07,3.07,0,0,1-1.83-2A2.93,2.93,0,0,1,83.35,23.19Zm-9,2a10.74,10.74,0,0,1,3-1,3.05,3.05,0,0,1,1.88.43,3.32,3.32,0,0,1,1.31,1.5,3.07,3.07,0,0,1,.1,2.42,4.43,4.43,0,0,1-2,2.09,6.43,6.43,0,0,1,1.73.35,14.52,14.52,0,0,1,2.19,1.19L85,33.75,82,35.05l-2.84-1.62a16.79,16.79,0,0,0-2-1.06,2.17,2.17,0,0,0-1-.14,5.15,5.15,0,0,0-1.3.42l-.5.23,2,4.63L74,38.59l-4.9-11.08Zm-8.46,4.07L66.95,31l-6.07,3.83,1.44,2.28L68,33.56l1.1,1.72L63.4,38.86l1.75,2.78,6.3-4,1.09,1.73L64,44.8,57.52,34.56ZM48.23,42.1l8.34,4.66-3.31-8.95L55.43,36l4.2,12.33-2.21,1.88L46,44ZM44.76,45.5l8.71,8.4-1.86,1.94L42.9,47.43ZM35.52,56.25l9.83.67-6.43-5,1.53-2L50,57.4l-1.66,2.12-9.63-.62L45,63.8l-1.52,1.95L33.92,58.3ZM27.81,68.59l5.77,3.23a11.73,11.73,0,0,0,1.83.91,2,2,0,0,0,1.45-.13,3.1,3.1,0,0,0,1.27-1.34,2.89,2.89,0,0,0,.47-1.72A1.69,1.69,0,0,0,38,68.41a11.76,11.76,0,0,0-1.75-1.12L30.38,64l1.31-2.34,5.57,3.12a14.54,14.54,0,0,1,2.59,1.7,3.25,3.25,0,0,1,.93,1.45,4.08,4.08,0,0,1,.1,1.85,7.6,7.6,0,0,1-.93,2.42,8.09,8.09,0,0,1-1.77,2.33,4.14,4.14,0,0,1-1.68.85,3.08,3.08,0,0,1-1.54,0,12.49,12.49,0,0,1-2.81-1.28l-5.66-3.16ZM17.64,101l8.9-4.2-8.06-1.25.38-2.46,12,1.86-.41,2.65-8.71,4.15L29.59,103l-.38,2.45-12-1.85Zm-.53,6,12.1.57-.13,2.69L17,109.64Zm.13,14.09,4.75-.27-.3-5.3-4.75.27-.16-2.68,12.1-.68.15,2.68-5.3.3.3,5.29,5.29-.29.15,2.68-12.09.68Zm13.05,13.68a6,6,0,0,1-4.06,2.62,6.23,6.23,0,0,1-5-.72,6.23,6.23,0,0,1-2.58-4.1,5.89,5.89,0,0,1,.47-4.18,4.66,4.66,0,0,1,1.91-1.81l1.11,2.51a2.54,2.54,0,0,0-1.27,1.28,3,3,0,0,0-.15,1.91,3.21,3.21,0,0,0,1.45,2.17,4.51,4.51,0,0,0,3.27.25,4.74,4.74,0,0,0,3-1.57,3.09,3.09,0,0,0,.47-2.53,2.91,2.91,0,0,0-1-1.7,3.61,3.61,0,0,0-2.15-.69l.18-2.71a5.29,5.29,0,0,1,3.31,1.36A6.08,6.08,0,0,1,31,130.11,6,6,0,0,1,30.29,134.73Zm3.8-50.63-3,.27-1.62,5.11,2.29,1.88-.87,2.74-10-8.59.87-2.71L35,81.35ZM66.4,185.57A1,1,0,0,1,66,186c-.5.3-2.76-.17-3-.08-1.08,0-1.46,0-1.67.39.16.28.08,1.06-.44,1a16.91,16.91,0,0,0-2.32-.47,2.33,2.33,0,0,0-.66,0c-2.51,3.11-4.47,5.67-7.23,8.58-.06-.05-.47.21-.54.17,1.93-3,3.83-6.22,5.91-9.21.08-.33-.1-.56,0-.69-.16-.45.47-1.13.86-1.11a.83.83,0,0,0,.41-.07c1.31-1.89,1.21-1.79,1.67-2.45-.3-.43-2.23-1-1.86-1.51a8.23,8.23,0,0,1,1.19,0,11.86,11.86,0,0,1,1.31.35,8.18,8.18,0,0,0,1.67-2.76c.13-.21.78-1.11.61-1.23,0-.29-.11-.43,0-.74a2.2,2.2,0,0,1,1.42,2,1.82,1.82,0,0,1-.09.86l-1.72,2.47a4.14,4.14,0,0,0,.54.34c.7.33,1.34.38,2,.75.06-.09.42,0,.47-.12C66.35,183.42,66.65,185.19,66.4,185.57Zm-14.93-6.35a5.23,5.23,0,0,1,1.75,1.6,8.69,8.69,0,0,1,1.56,2.92c.23.58.43.88.21,1.47-1-.57-.91-.89-1.36-2a4.06,4.06,0,0,0-1.06-1.92C52.48,180.78,51.51,179.8,51.47,179.22Zm17.12,20c0-.5-.39-.73-.3-1.26,1.32-1.86,3.17-6,4.94-8.53.18-.32.4-.66.58-.56,0,.23.24.24-.22,1.17,0,.23-4.66,8.91-4.3,9.21C69,199.27,69,199.4,68.59,199.24ZM75,201.33a1.36,1.36,0,0,1-.39.09,2.14,2.14,0,0,1-1.26-.46c-.37-.4-1.55-2.23-1.43-2.75l.1.05c.34,1.22,2.38.93,4.15.33a8.38,8.38,0,0,0,2.71-1.32c-.11-.29,0-.39-.31-.68a3.56,3.56,0,0,1-1.66.65c-2.05.5-5.29.9-5.54.66-.86-.16-.73-.48-.13-1.28,1.54-.56,4.11-1,5.64-1.74a.58.58,0,0,0,.15-.78,10.76,10.76,0,0,1-3.28.57c-.69-.69-.19-1.37.19-2.06.14,0,0,0,.14,0,.47.44,2.08.09,2.45-.32-.26-.32-.82-1.59-.52-1.33a3.54,3.54,0,0,0,1.09.55c.12,0,.2,0,.12-.18-.4-.08-.75-.3-.79-.49.17-.61.61-.54,1-.37s2,1.54,2.09,1.55a.6.6,0,0,1,.18.16,1.69,1.69,0,0,1,.26.58c-.17.9-.48,1.13-1.15,1.11.19,1.13,0,2,.8,3.15.51-.32,1-.35,1.08-.76a1.89,1.89,0,0,1,.8,1.58c-.47.88-1.57.7-1.75,1-.3,1.11-.16,2.81-.47,3.7a.33.33,0,0,1-.48,0,9.06,9.06,0,0,1,0-3.28,16.59,16.59,0,0,1-2.51.7c0,.22,0,.1.05.26.37.37.54.49.65.81a1.16,1.16,0,0,1-.44.61c-.23.12-.57-.13-1.22-.35C75.29,201.29,75.09,201.3,75,201.33Zm6.48-10c.13-.36.67-.26.87-.1a2.78,2.78,0,0,1,1.41,1.86,1.72,1.72,0,0,1-.41.82c-.25.16-1.25,0-1.37-.61A12.91,12.91,0,0,1,81.48,191.33Zm5.72,3.56c-1.59.28-5.2,10.13-6.7,12.24-1,1.53-1.59,1.68-2.27.87-.89-1-2-5.2-1.81-6,.17.1.37.88.57,1.16.16-.3,0-.36.15-.47a19.78,19.78,0,0,0,1.36,2.78c.75.4.94-.59,1.41-1.06.94-2,3.58-8.37,4.6-10.14.6-1.28,1.18-2.35.4-3.11-2.67-1.36-5.91-.4-8.35-1.77a.26.26,0,0,1,.16-.11c1.32-.54,7.47,1,7.49.95C86,190.72,88.44,192.64,87.2,194.89ZM92.88,208s-.6.2-.62.36a1,1,0,0,1-.49.28,1.59,1.59,0,0,1-1,.06,1.82,1.82,0,0,0-.56-.25,5.15,5.15,0,0,0-.65-.22s-.38,0,.18-.23c0,0,.1-.17.39-.12a.51.51,0,0,0,.22-.15s0-.11.2,0c0,0,.21.25.4-.28,0,0,0-.07.25-.14a18.17,18.17,0,0,0,3.1-1.79,18.58,18.58,0,0,0,3.12-2.4s.94-.71,2-1.54c0,0,3.1-2.55,3.69-3.18,0,0-2.2-1.09-1.92-2.19,0,0,.08-.37.33,0a3.1,3.1,0,0,0,2.65.44,3.17,3.17,0,0,0,1.74-.63s1.1-.11,1.44,1.81c0,0,.18.92-.46.8a3.58,3.58,0,0,0-1.21.16.85.85,0,0,0-.71.26,53.88,53.88,0,0,1-4.53,3.41s-1.61,1.14-3.84,3.08A12.63,12.63,0,0,1,92.88,208Zm15.23.1a1.33,1.33,0,0,0,0,.46s0,.51-.62.42a6.92,6.92,0,0,0-2,.85s-.81.84-.72,1.37a.7.7,0,0,1-.6.78,1.32,1.32,0,0,1-.84-.06,1.11,1.11,0,0,0-1.25.16s-.11.23-.42-.16c0,0,0-.11-.27-.21a.48.48,0,0,1-.17-.42,1.12,1.12,0,0,0-.48-.77s-.22,0-.34-.43c0,0-.32-1.4-.55-2A2.07,2.07,0,0,0,99,207s-1.09-1.28-.54-1.27c0,0,1,0,1.68,1.39a3.08,3.08,0,0,0,.07.87,16.09,16.09,0,0,0,.74,1.92s.07.24.23-.16l.26-.62s.29-.38.52-.22c0,0,.11.27.31,0a3.63,3.63,0,0,0,1.16-.83s.6-.57.38-.87a13.72,13.72,0,0,1-1-1.1s-.53-.34-.17-.4a2.91,2.91,0,0,1,.93.17s1.35.24,1.83-.17c0,0,.22-.44.51-.21,0,0,.67.63,1,.58A1.89,1.89,0,0,1,108.11,208.13Zm13,4.19s-.1.38-.55.23a5.11,5.11,0,0,1-1.93-2.52,21.24,21.24,0,0,1-.35-2.52s0,0,0-.3l-.22-1.43a1.79,1.79,0,0,1,.14-.3s-.09-.34,0-.37a1.26,1.26,0,0,0,0-.19s0-.59.32-.28a.44.44,0,0,1,.06.56s-.27.45.66,2.06a.69.69,0,0,0,.36.4,1,1,0,0,1,.44.8,1.93,1.93,0,0,1,0,.59s-.15.32.17.21a.2.2,0,0,1,.25.2,8.22,8.22,0,0,0,.14,1s.2.22.18.36,0,.15.09.2,0,0,.07.16S121.18,212.27,121.07,212.32Zm-.66-10-.52-.26a2.07,2.07,0,0,1-.58.06s-.33-.08-.14-.36a3.9,3.9,0,0,0,.3-2.09s-.19-.13.08-.37c0,0,.17-.33.4.07a8.36,8.36,0,0,1,1.18,2.47S121.18,202.57,120.42,202.37ZM134,203.46a2.7,2.7,0,0,1-.84,1.06,1,1,0,0,0-.31.71s-.6,1.36-1.08,1.6a1,1,0,0,0-.43,1.07,1.84,1.84,0,0,1,.66,1.59.22.22,0,0,1-.22.3,2.47,2.47,0,0,1-.44.16L131,210a5.8,5.8,0,0,1-1.35.27,4.66,4.66,0,0,1-1,0s-.11-.08-.28.05a1.6,1.6,0,0,1-2.17.24l-.47-.35a1.67,1.67,0,0,0-.69-.35s-1.37-.87-2-1.22a3.41,3.41,0,0,1-.9-1.2s-.18-.57-.58-.55a.59.59,0,0,1-.39-.39v-.05a.5.5,0,0,1,0-.19s-.08-.29.43-1a5.25,5.25,0,0,1,.82-.81,10.06,10.06,0,0,1,1.56-1.25l.53-.53.55-.55a2,2,0,0,1,.92-.6s.74-.28.77-.55c0,0-.08-.75-.07-.91l-.55-3.45s-.07-.37.31-.16a.65.65,0,0,0,.54,0s.37-.07.62.74a8.44,8.44,0,0,1,.58,2s.2,1.23.18,1.44c0,0,0,.41.36.39l1.24.1c.85.06,1.9.13,2.33.19a2.7,2.7,0,0,1,1.82,1.3S134.43,202.69,134,203.46Zm15-6.87s-.29,0-.27.41a3.33,3.33,0,0,0-.13,1.2,2,2,0,0,1-.24,1.14,2.32,2.32,0,0,0-.11,2.4.76.76,0,0,1,0,1.23s-.28.14-.49.82c0,0-.14.41,0,.5s-.17.48-.11.62a1.41,1.41,0,0,1-.75.82s-.6.33-.69.72c0,0-.27.38-.45.43,0,0-.17,0-.18.23a1.42,1.42,0,0,1-.84.72s-.06-1.57,0-2.14a3.63,3.63,0,0,1,.1-1.26s-.12-.61.28-.58c0,0,.2.15.23-.16,0,0,.24-.84.26-1s-.27-.25-.36-.24A.64.64,0,0,1,145,202s0-.15-.29-.25c0,0-.56-.3-.54,0,0,0,0,.09-.37,0,0,0-2.24-.46-1.24-.9a2.65,2.65,0,0,0,1.93-1.14s.26-.16.4-1.84c0,0,0-.25-.17-.3,0,0-.18-.21-.08-.39a1.37,1.37,0,0,0-.17-.45.3.3,0,0,1,0-.32.73.73,0,0,0-.17-.44.41.41,0,0,1,0-.35.9.9,0,0,0-.15-.34s-.13-.13.1-.24c0,0,.3,0,0-.35a2.39,2.39,0,0,0-.37-.4l-.35-.23-.75-1.79s-.8-.59.18-.37a2.23,2.23,0,0,1,1.26,0l1.24,0s.21-.13.63.59c0,0,.24.87.41.88a10.49,10.49,0,0,1,1.25.36.16.16,0,0,0,.18-.12.73.73,0,0,1,.76.45s0,.31.23.22a.54.54,0,0,1,.49.61A1.7,1.7,0,0,1,149,196.59Zm6.4,5.88a1.21,1.21,0,0,1-.87.88l-.84.22a1.58,1.58,0,0,1-.68-.15.27.27,0,0,0-.34.06s-.16,0-.55-.41a.64.64,0,0,1-.31-.66,3.19,3.19,0,0,0-.42-1.25s-.33-1,.23-.86a2.19,2.19,0,0,0,.75-.14,5.27,5.27,0,0,1,1.58.38,5.6,5.6,0,0,0,1.08.39s.48.11.41.78c0,0-.06.27.05.4A.52.52,0,0,1,155.45,202.47Zm8.37-14.35s-.58-.17-.88-.3c0,0-.31-.33-.44.27a3.34,3.34,0,0,0-1.22,2.33.6.6,0,0,0,.05.59,2.55,2.55,0,0,1-.11.8s0,.75-.23.87a1.08,1.08,0,0,0-.53.25.65.65,0,0,1-.35,0s-1,0-.83-.64a4.33,4.33,0,0,0-.08-1.47.64.64,0,0,1,.3-.87,2,2,0,0,1,.78-.22s.22,0,.31-.24a12.44,12.44,0,0,0,1.7-2.2s.15,0-.19-.49a7.61,7.61,0,0,0-2.35-1.67,4.7,4.7,0,0,0-1.8-.42s-2-.13-.58-.52c0,0,1.29-.46,3.2.94a7.17,7.17,0,0,1,1.85,1.57s.16.3.38,0c0,0,.64-.52.27-.95a9.31,9.31,0,0,0-3.35-3.07s-.89-.59-1.44-.43c0,0-.42-.13.07-.19a2.55,2.55,0,0,1,2.68.68,19,19,0,0,1,2.06,1.89s.4.34.14-.09a.68.68,0,0,1,.09-.57.16.16,0,0,0-.17-.21s-.14-.36-.05-.46.12-.21-.24-.18a.59.59,0,0,0-.45-.12s-1.14-.11-.32-.23a3.17,3.17,0,0,1,.59,0s.3,0,.06-.36a9.77,9.77,0,0,1-.42-1.18s-.21-.44-.33.08c0,0-.17.44-.8.08,0,0-1.31-.14-1.21-.82,0,0,.11-.85-.54-1,0,0-.73-.16.08-.37a3.4,3.4,0,0,1,1.52.06s.1.23.62-.05c0,0,2-.87,2.35.38a3.23,3.23,0,0,0,.14,1.65,1.76,1.76,0,0,1,0,.81s-.08.15.29.56a.33.33,0,0,1,0,.39,5.6,5.6,0,0,0,.05.88s-.28.72.09.26c0,0,1.21-1.73,1.82-2.44,0,0,.27-.52-.29-.47a3.16,3.16,0,0,1-1.18-.52s-.61-.24-.13-.29c0,0,.58.07.45-.16,0,0-.15-.09.19-.2,0,0,.47,0,.33-.35,0,0-.24-.8-.5-.5a1.51,1.51,0,0,1-1.18-.54s-.41-.18-.25-.35c0,0-.1-.25.25-.13,0,0,1,.43.66-.11l-.47-.65s-.19-.37-.79,0c0,0-1.36.26-.85-.25,0,0,.43-.2.22-.45,0,0-.16-.07.39-.46,0,0,.11-.1,0-.31,0,0,.05-.18.59-.28,0,0,1.89-.8,2.22.3a.92.92,0,0,1,0,.7s-.09,0,.15,1a.92.92,0,0,0,.25.77,2.44,2.44,0,0,1,.47,1,2.87,2.87,0,0,1,.53.83s.09.39.33.2c0,0,1.86-2.22,3.27-1.69,0,0,.61-.07-.22,1.16,0,0-.25.43-.51.48l-1.54.61s-.48.21,0-.21c0,0,.76-.65.75-.93,0,0,.16-.48-.2-.07a5.9,5.9,0,0,1-1.12.94s-.55.35-.31.79a.26.26,0,0,1,0,.26s-.05,0,.07.22c0,0,.5.76-.37.82a1,1,0,0,1-.89-.34s-.15-.52-.42,0a13,13,0,0,1-1.21,1.72s-1.18,1.21-.94,1.52c0,0,.57.27.26.47a2.21,2.21,0,0,1-.6-.07s-.22-.12-.34.33c0,0-.7.75-.12,1a.58.58,0,0,1,.26.3S164.16,187.88,163.82,188.13Zm9.14,5.41a1.77,1.77,0,0,0-.17.76.54.54,0,0,1-.19.33l-2.22,1.58a.51.51,0,0,0-.49.23s-.15,0-.2-.06,0-.13-.21.1a.35.35,0,0,0-.43.07l-1.32.3s-.56.06.11-.27c0,0,1.71-.45.87-.54,0,0-.52-.09-.08-.29a6.08,6.08,0,0,0,2.18-2.32s1.54-2.42-.47-3.89a2.63,2.63,0,0,0-1.75,1.13s-.51,1.29-1,1.34a3.75,3.75,0,0,1-1.89-.59s-.64-.21-.14-.32c0,0,.33.14.81-.35,0,0,.61-.35.58-.65a9.41,9.41,0,0,1,1.12-1,4.76,4.76,0,0,0,.76-.92s.05-.47-.37-.24c0,0-.91,1-1.77-.87,0,0,0-1.8-.35-1.15,0,0-.37,1.15-1.22,1.42a1.3,1.3,0,0,1-.87.09s-.64-.34,0-.35c0,0,.58-.14,1.15-1.16,0,0,.56-.67.47-1,0,0-.12-.33.55-.59,0,0,1.43-1.07,2.18-.41,0,0,.4.37,0,1.1a1.23,1.23,0,0,0,.41,1.21s1.05.61,1.25.19c0,0,1.2-1,1.61-.64,0,0,1,.09.84.7a3,3,0,0,0-.27.66s-.05.12-.42.35a.7.7,0,0,0-.18,1.09l1.17,1.6a5.76,5.76,0,0,1,.24,2.64A1.75,1.75,0,0,1,173,193.54Zm-59.76-2a78.18,78.18,0,1,1,78.18-78.19A78.18,78.18,0,0,1,113.2,191.49ZM190,81.21a6.63,6.63,0,0,1-.28-5,6,6,0,0,1,3.55-3.36,7.17,7.17,0,0,1,3.12-.63,5.63,5.63,0,0,1,2,.51,5.19,5.19,0,0,1,1.67,1.18,7.84,7.84,0,0,1,1.54,2.47,6.58,6.58,0,0,1,.26,5,6.94,6.94,0,0,1-8.54,3.55A6.59,6.59,0,0,1,190,81.21Zm14.65,4.49.65,2.6-9.67,2.4,1.62,6.52-2,.49L193,88.6Zm2.52,44.22-8.57.67,7.62,4-.82,4-11.86-2.42.5-2.43,9.34,1.89-8.82-4.5.53-2.56,9.86-.64L195.62,126l.49-2.43L208,125.95ZM198.63,118a1.69,1.69,0,0,0,1,.74,13.37,13.37,0,0,0,2.07.2l6.74.24-.1,2.68-6.38-.23a14.8,14.8,0,0,1-3.07-.33,3.36,3.36,0,0,1-1.49-.86,4.08,4.08,0,0,1-.93-1.61,7.53,7.53,0,0,1-.28-2.57,8.12,8.12,0,0,1,.51-2.89,4.11,4.11,0,0,1,1.09-1.52,3.32,3.32,0,0,1,1.38-.71,13.57,13.57,0,0,1,3.09-.15l6.47.23-.1,2.68-6.6-.24a13.54,13.54,0,0,0-2,0,1.94,1.94,0,0,0-1.23.78,3,3,0,0,0-.51,1.77A2.9,2.9,0,0,0,198.63,118Z"/><path class="cls-1" d="M165.37,39.32a1.72,1.72,0,0,0,1,0,1.63,1.63,0,0,0,1.06-1.76,1.89,1.89,0,0,0-.59-1.05,13.56,13.56,0,0,0-1.54-1.17l-1.06-.74-2,2.85,1.21.84A7.68,7.68,0,0,0,165.37,39.32Z"/><path class="cls-1" d="M129.08,202.17c.14.24.5.76.5.76a1,1,0,0,0,.33.5c.31.25,0,.71,0,.71a1.21,1.21,0,0,0-.25.39,3,3,0,0,1-.82,1.33c-.53.51,0,1.52,0,1.52.29.68,1.21-.76,1.21-.76a.93.93,0,0,1,.36-.34l.26-.42c.38-.57.92-1.33.92-1.33a13.6,13.6,0,0,1,.73-1.55c.18-.11,0-.55,0-.55-.07-.31-1.2-.77-1.2-.77a4.82,4.82,0,0,0-1.09-.13l-.8,0C128.54,201.6,129.08,202.17,129.08,202.17Z"/><path class="cls-1" d="M197.25,82.19a4.31,4.31,0,0,0,2.51-2.13,3.54,3.54,0,0,0-.06-2.86,3.59,3.59,0,0,0-2-2.08,5.32,5.32,0,0,0-5.82,2.43,3.82,3.82,0,0,0,2,4.9A4.45,4.45,0,0,0,197.25,82.19Z"/><path class="cls-2" d="M430.43,66c-6.27,5.06,1.82,56.85.35,69.66-.87,9.26-2.91,11.23-7.83,9.3-6.18-2-21.34-17.89-22.41-21.79,1,0,3.76,2.94,5.25,3.66,0-1.68-1-1.5-.47-2.41,2.69,2.22,10.73,8.15,12.66,8.88,4.21-.06,2.65-4.87,3.57-8.06-.81-11.14-4.57-45.27-4.38-55.44-.44-7-.53-13.12-5.8-14.55-14.95.51-26.78,12.53-40.73,12.43a1.36,1.36,0,0,1,.44-.83c4.49-5.53,35-13.83,35-14C415.3,50.66,430.43,53.22,430.43,66Z"/><path class="cls-2" d="M400.4,61.75c3.57.44,6.5.34,10.66,4.73a8.2,8.2,0,0,1,.2,4.53c-.73,1.34-5.55,2.84-7.47.66s-6.31-5.82-6.9-7.36C396.54,62.43,399.15,61.51,400.4,61.75Z"/><path class="cls-2" d="M357.45,72.21c.64.91,1.64.43,1.87,5.64.64.92,1.2,50.19,3.48,50.62-1.45.8-1,1.25-3.19,1.55-1.26-2.12-3.46-2.22-4.33-4.77,1.26-11.29-.68-34,1-49.18C356.25,74.23,356.39,72.21,357.45,72.21Z"/><path class="cls-2" d="M293.86,97.39c-5.76.54-6.36-1-11.49-4.43-1.65-1.73-3.83-3.08-10-4.87-1.78-1.73-8.65-3-10.49-5.32,5-.15,8.56.16,11.89,1.6,1.34.64,8.62,2.23,14.88,7.56C291.37,93.66,293.06,94.36,293.86,97.39Z"/><path class="cls-2" d="M313.57,63.2c3.86-.63,6.65-2.27,10.57-2.69,0-.54,1.64-1.36,1.64-1.84,10.07-1.44,16.43,5.07,16.48,7.34a4.81,4.81,0,0,1-.47,3.17c-1.21,2.66-12,7.28-12.49,8.25-4.58,3-6.12,4.14-5.82,6.45,1.45.72,3.41,4.15,1.1,5.5a81.08,81.08,0,0,0-11,4.73V73.81l4-4.73-4,.63ZM296.72,40.35c4.71-.48,8.66,0,11.5,4a9.43,9.43,0,0,1,2.13,3.85V63.4a17.39,17.39,0,0,0,3.21-.2v6.5l-3.21.53-.73,8.29,3.95-4.73v20.3a12.58,12.58,0,0,0-2.74,1.82c-1.45,20.15-2.17,36.45-5.2,56.46-.38,0-1.34,2.27-1.74,2.27-.57-17.9-2.07-36.89-2.07-55.3-.61-1.65-2-2-2.12-2.75-1.92-1.4-1.3-6.08.38-7.09a4.24,4.24,0,0,0,1.5-1.45c0-11.62-.14-10.95-.14-15-2.47-.93-12.11,2.36-12.11-.87a43.06,43.06,0,0,1,5.11-3.28,60.69,60.69,0,0,1,6.46-2.32,41.32,41.32,0,0,0-1.06-16.29c-.1-1.24,0-6.84-1-6.84C298,42.23,297.15,41.93,296.72,40.35Z"/><path class="cls-2" d="M402.47,93.33c1.45-2.6,3.38-3.86,2.89-5.92,3.63.71,5.22,1.73,7.34,5,.14,5.07-5.21,6.9-5.21,8.68,1.39,5.6,6.12,12.68,6.93,17.3a1.63,1.63,0,0,1-2.08,1.22c-2.94-3.05-6.45-10-7.8-14.38a82.23,82.23,0,0,1-9.26,9.13c.34,1.06.3.38.88,1,2.5.72,3.51.87,4.77,2a5.79,5.79,0,0,1-.47,3.71c-.69,1.11-2.81.82-6.17,1.4-.41.33-1.3.87-1.61,1.2a5.47,5.47,0,0,1-1.49,1.36V108.85c4.86-5.3,8.64-10.94,8.68-12.28-1.21-1-1-1.68-3-2.23,0,1.17-2.32,3.77-5.69,6.84V96.37a2.84,2.84,0,0,0,.58-1.64l-.58-.28v-5c1,.86,1.4,1.35,1.49,1.79,2.41,1.29,1,.61,2.6,2.6.92,0,.53-.68.53-1.55-1.15-1.49-2.78-3.9-4.62-6V72a7.79,7.79,0,0,1,2.55,1.91c1.45,4.34.64,6.08-2.34,7.62C394.9,86,396.51,90.29,402.47,93.33ZM391.19,125c-1.68,1.06-4,1.2-6.59,1-2.57-.83-12.21-6-12.89-8.54h.54c4.49,4.53,12.67-1.7,18.94-8.59V125Zm0-23.84V96.37c-1.68,2.7-6.8,7.13-11.09,9.79-1.25.76-3.42,3.41-4.74,3.41,2.28-4.09,11-10.21,14.19-16.15.52.25,1.1.69,1.63,1v-5c-.92-.83-2.4-2.08-4.67-4.05.66-.2,2-1.22,2.69-1.4a26.13,26.13,0,0,1,2,2.26V72a3.11,3.11,0,0,0-1.2-.25C389.51,72,379.62,70,377.17,70c-2.24.28-4.29,1-3.58,4.1.63.75,2.7.86,4.63.23.69.49.4.83-.12,1.11-2.94.68-3.2.24-6.08.24-2-.42,3.51,3.73,5.45,4.54-.63,2.69-6.86,8.1-9.94,7.34-.48.57,0,.09-.53.52,0,3.9-.49,8.09,4.19,9.45,2.6-1.83,11-7,12.93-10.41,2.26,1.64,1.34,3.14,1.24,3.8-5,6.8-15.08,15.1-20.48,21.26-.67,4.92-.48,6.65,3.66,5.26C370.23,117.92,383.42,108.33,391.19,101.17Z"/><path class="cls-2" d="M734.46,64.35s-7.49-6.17-.84-3.71c0,0,6.51,1.85,10.13,12.92,0,0,3.22,7.58,2.89,11.62,0,0-.24,1.64,1.59,1,0,0,4.05-.19,3.78-3,0,0,1.2-8.09-4.6-21.89,0,0-1.87-4.91-4.52-5.83,0,0-1.3-1.74.81-.63,0,0,6.55,1.21,8.78,10.42a96,96,0,0,1,2.78,13.5s.63,2.5.84,0c0,0,.61-1.74,2-2a.8.8,0,0,0-.09-1.3s.46-1.84,1.11-2c0,0,1.09-.48-.43-1.38a2.81,2.81,0,0,0-1.5-1.75s-4.24-3.72-.57-1.84A13.13,13.13,0,0,1,759,70s1.2.82,1.31-1.31A47.82,47.82,0,0,1,762,62.82s.43-2.37-1.6-.63c0,0-1.93,1.3-3.41-1.93,0,0-4.83-4.34-2.51-6.75,0,0,2.9-3.08.67-5.44,0,0-2.5-2.71,1.37-1.29a16.79,16.79,0,0,1,5.91,4.61s-.29,1.21,2.61,1.55c0,0,10.54,2.31,8.33,8.24,0,0-3.91,4-4.19,7,0,0-1.11,2.74-2.2,3.33,0,0-.75.34-.45,3a1.64,1.64,0,0,1-1.11,1.58,31.33,31.33,0,0,0-2.32,3.66s-3.17,2.08-.37,1.31c0,0,9.78-3.43,14.22-4.53,0,0,2.59-1.3.19-2.75,0,0-2.85-3.18-3.24-5.46,0,0-1.73-2.68.3-1.5,0,0,2.11,2,2.3.63,0,0-.38-.82,1.3-.27,0,0,1.95,1.3,2.32-.43,0,0,1.35-3.91-.59-3.42,0,0-3.23-2.22-3.23-5.55,0,0-1.11-1.88,0-2.12,0,0,.41-1.3,1.41.19,0,0,2.66,4.53,2.94,1.45v-4s.3-2-3.22-2.11c0,0-6.23-2.9-2.7-3.43,0,0,2.3.43,2.21-1.22,0,0-.44-.76,2.88-.76,0,0,.73-.05.93-1.17,0,0,.72-.56,3.13.54,0,0,9.85,2.21,8.07,7.56,0,0-.64,2.12-2.21,2.7,0,0-.41-.2-2.24,4.43a4.48,4.48,0,0,0-1.22,3.8s.11,3.49-1,5.36c0,0,.31,3.86-.28,4.82,0,0-.73,1.85.79,1.73,0,0,13.83-3.51,17.93,2.71,0,0,2.65,1.44-4.19,4,0,0-2.23,1-3.38.48l-7.94-2s-2.51-.48.62-.76c0,0,4.92-.44,5.64-1.55,0,0,2-1.49-.57-.87,0,0-5.55,1-7.17.58,0,0-3.26-.19-3.55,2.23a1.26,1.26,0,0,1-.57,1.2s-.35,0-.35,1.11c0,0-.18,4.43-3.8,2.2,0,0-2.75-1.48-2.6-3.89,0,0,.88-2.51-1.83-1,0,0-6.75,2.89-9.79,3.43,0,0-8.23,1.48-8.13,3.42,0,0,1.53,2.69-.31,2.6a10.06,10.06,0,0,1-2.21-2s-.51-1.11-2.3.34c0,0-5,1-3.24,3.44a2.7,2.7,0,0,1,.19,2s2,1.63-.08,1.63c0,0-1.84-2.32-2.7-3.71,0,0-.3-2.21-2.56-.2,0,0-8.25.59-11.57,5.84a3,3,0,0,0-1.51,2.52,11.83,11.83,0,0,1-2.7,2.88s-2,3.14-3.42,2.85a5.3,5.3,0,0,0-2.84-.53,3,3,0,0,1-1.4-1s-4-2.65-1.49-5a20.89,20.89,0,0,0,3.91-6.12s.73-3.33,3.7-2.6c0,0,2.94.47,3.78,1.41a1.48,1.48,0,0,0,2-.11s9.07-1.73,13.12-4c0,0,.72.29.67-2.49,0,0-1.4-9.18-4.62-13.42C740.48,71.25,737.19,65.76,734.46,64.35Z"/><path class="cls-2" d="M752.78,91.78s2.73,1.1,7.93-1.3c0,0,4.16-1.11,4.87-2.8,0,0,.49-1.74,3.9-.81,0,0,8.77-.19,9.88,4.63,0,0,.6,2.61-3,4.53a6.06,6.06,0,0,0-1.83,6s2.46,5.45,4.43,4.33c0,0,7.57-.37,8.3,2,0,0,3.81,3.33,1.3,5.25a14.62,14.62,0,0,0-2.93,1.88,5.7,5.7,0,0,1-2.73.18s-4.12-.28-3.83,3.86l.08,9.79s-2.39,7.76-6.59,11.28a8.88,8.88,0,0,1-3.33,2.07,8.59,8.59,0,0,0-2.84,2.56,2.69,2.69,0,0,1-1.68.78h-13.4a2.47,2.47,0,0,0-2.6-.49s-.63-.49-.63-.82c0,0,.19-.67-1.11-.19a1.68,1.68,0,0,0-1.92-.93l-6.13-2.6s-2.41-1.38,1.21-.82c0,0,8.14,3.13,5.06.33,0,0-1.83-1.83.49-1.34,0,0,9.63.62,15.37-3.09,0,0,13.12-5.24,9.3-16.92,0,0-4-2.45-10.27-.52,0,0-5.73,3.71-8,2.41,0,0-5-3.9-5.89-7.77,0,0-2-2.71.33-1.69,0,0,1,1.5,4.29.93,0,0,3.43.37,4.16-.93a47.9,47.9,0,0,1,7.36-.82s4.39-.67,5.65-1.48c0,0,1.59-1.74-.73-2,0,0-6.46,1.3-4.62-8.58,0,0,5.12-7.23,1.89-5.63,0,0-4.82,3.56-8.93,2.2a6.24,6.24,0,0,1-3.75-2.11S750.18,90,752.78,91.78Z"/><path class="cls-2" d="M668,57.94s-2.47-4.24,1.54-1.34c0,0,3.85.34,5.78,2.26,0,0,4,1.89,5.5,2.6,0,0,1.24-.2,1.73,3.91,0,0-.62,4.38.16,4.77a44.84,44.84,0,0,1,4.91,4,.76.76,0,0,0,1.06-.24,3.64,3.64,0,0,1,2.56,3.52s-.73,1.35.65,1.45a2.62,2.62,0,0,1,1,3.7s-.21,5.6-4.67,7.3c0,0-1.35-.44-2.07,1.3,0,0-2.65,3.31-2.9,5.15A9.68,9.68,0,0,1,680,101a11.39,11.39,0,0,0-5.15,10.66s2.17,4.13-2.33,5.58c0,0-1.54.11-3.78,2.76,0,0-1.46,1.54-1.17,2.17,0,0-1.74,1.88-1.74,2.6a7,7,0,0,1-5,2.27s-3.37.34-4.53,1.88c0,0-2,1.2-2.91,1.11,0,0-.71-.48-1.25.72a7.06,7.06,0,0,1-5.15,1.59s2.7-7.18,3.89-9.73c0,0,1.25-3.82,2.9-5.51,0,0,.62-3,2.41-2.07,0,0,.62,1.08,1.34-.28,0,0,2.76-3.33,3-3.81,0,0-.72-1.63-1.16-1.79a3.34,3.34,0,0,1,.2-2.8s.34-.58-.81-1.62c0,0-1.93-2.46-2.36-1.17,0,0-.4.26-1.74-.66,0,0-9.21-6.43-3.85-6.43a13.21,13.21,0,0,0,10.94-1.45s1.49-.23,5.4-7.57c0,0,.62-1-.19-1.64,0,0-.43-1.34.37-2a6.42,6.42,0,0,0,.12-2.36,1.51,1.51,0,0,1,.42-1.54,3.65,3.65,0,0,0,.11-2.32A1.93,1.93,0,0,1,668.4,76a3.82,3.82,0,0,0,0-1.83s-.35-.86.91-.86c0,0,1.25.77.64-1.66a13.92,13.92,0,0,0-.93-2.54l-1.16-1.68Z"/><path class="cls-2" d="M690.19,115.21s.44-5.21,2.69-3.43a11.34,11.34,0,0,0,3.62.81,25.8,25.8,0,0,1,6.41,4.79s2.9,3.17,4.11,3.8c0,0,2,1.46.32,4.34a2.41,2.41,0,0,0-.52,1.89,2.62,2.62,0,0,1-1.11,1.45s-2.3,3.08-5.58,2.27c0,0-2.71-.34-4.25-.62a7.92,7.92,0,0,1-2.78-2,1.31,1.31,0,0,0-1.65-.42s-.73-.29-1.68-2.9c0,0-1.21-1.3-.1-3.55A16.1,16.1,0,0,0,690.19,115.21Z"/><path class="cls-2" d="M547.21,116s-.28-12.05.24-13.07c0,0,.19-.14.28-1.54l.06-7.47a9.76,9.76,0,0,1,1-1.4s-.18-1.78.45-1.83v-1s.62-3,1.86-1.21a2.25,2.25,0,0,1-.13,2.89s-1.73,2.08,1.69,11a3.57,3.57,0,0,0,1.51,2.35s1.71,1.2,1.57,4.44a9.39,9.39,0,0,1-.28,2.93s-1,1.5.65,1.21a1,1,0,0,1,1.16,1.21,42.79,42.79,0,0,0-.14,5.3s.83,1.29.61,2c0,0-.13.77.35,1.11,0,0,.25.14.25.91,0,0,.29,5.5-.3,5.69,0,0-.81,1.83-3,.77A26.6,26.6,0,0,1,547.21,116Z"/><path class="cls-2" d="M559.93,64.4s-.82-.82.72-1.83c0,0,1.11-1.49,1.94.69,0,0,4.32,9.3,4,13.49,0,0-.24,3.48-4,1.83,0,0-1.4-1-2.41-1.73a10.09,10.09,0,0,1-3-.15s-1.63-.68-.44-1.93C556.75,74.77,560.22,69.51,559.93,64.4Z"/><path class="cls-2" d="M612.15,79.83c4.22,1,9.5,2.27,11.65,2.85,0,0,5,1.25,8.21,8,0,0,1.49.72-1.15,4.33,0,0-2.19,3.42-5.14,4.68,0,0-1.39.63-2.1,3.32,0,0-4.15,6.42-6.76,7.29,0,0-3.66,1.54-3,5.1,0,0,3.58,3.9,2.09,8.58a1.17,1.17,0,0,1-1.38,1.4,14.52,14.52,0,0,1-2.37.43V104.6c2.39-2.6,5.69-6,5.69-6a76.92,76.92,0,0,1,5-7.29c1-.44.28-2.84.28-2.84-.15-1.64-5.49-4.87-5.49-4.87a26.77,26.77,0,0,0-5.44-1.53Zm-28.94,3.62c1.3-.93,2.61-1.89,3.24-2.41a11,11,0,0,1,5.16-2.32s4-.77,4.34-2.13c0,0,.18-3.86.38-4.68v-18s0-1.87,1.69-.53a3.24,3.24,0,0,0,2.7.58s1.89-.05,2.51,4.29a43,43,0,0,1,1.39,10.41s0,6.37-.24,7.39a1.77,1.77,0,0,0,1.55,2.31s2.8.63,6.22,1.44V82.1c-2.14-.42-4-.78-4-.78-3.66-.15-1.4,3.19-1.4,3.19.54,1.34,1.95,4.29,1.95,4.29a4.78,4.78,0,0,0,1.25,2.8c1.34,1.5-.45,3.61-.45,3.61A6.22,6.22,0,0,0,607.85,97c-1.31,3.48-5.25,6.07-5.25,6.07-3.09,2.18-1,7.72-1,7.72.91,3.71,6.75-2.84,6.75-2.84a4.49,4.49,0,0,1,2.07-1.41c.43-.53,1-1.2,1.7-1.94v21.27a11.05,11.05,0,0,1-1.95.14,28.84,28.84,0,0,1-7.07.29,22.33,22.33,0,0,1-5.11-1s-.49-.44-1.45.09c0,0-6.11,4.92-11.23-.53,0,0-1-1.05-2.12-2.17v-3.91a28.22,28.22,0,0,1,3.28.68,5.21,5.21,0,0,0,5.11-3.77c-.45-1.63,1.91-3.47,1.91-3.47a2.75,2.75,0,0,0,1.17-2.26,24.72,24.72,0,0,1-.44-5.93,52.72,52.72,0,0,1-5.73-5.82c-2.62-4.83,1.14-4.83,1.14-4.83a3.32,3.32,0,0,0,2.66.15c2.46,0,2.31-3.8,2.31-3.8a4.47,4.47,0,0,1,.59-3.19c1.2-3.46.29-3.9.29-3.9-1.26-3-3.33.14-3.33.14-1.6,2-7.76,5.3-7.76,5.3a14.47,14.47,0,0,1-1.21,1.17Zm-18.37,19.13a3,3,0,0,1-1.67-2.31V100a2.27,2.27,0,0,1,.23-.91s-.23-1.54,3-4.82a27.31,27.31,0,0,1,4.81-3.48s5.46-3.86,8.93-5.11l3.13-2.22v5.83a7.5,7.5,0,0,1-1.64,1.3,7.94,7.94,0,0,0-4.82,1.25c-3,1.59-2.8,2.85-2.8,2.85a49.34,49.34,0,0,1-2.18,5.55,7.52,7.52,0,0,0-1.11,4.58,25.35,25.35,0,0,0,1.06,4c1.31,3.18,7.48,8.34,7.48,8.34a7.51,7.51,0,0,0,4,1.69v3.91c-1.11-1.09-2.4-2.18-3.23-2.31,0,0-6.28-5.49-9-7.76,0,0-3.37-4.09-3.62-6.79C567.35,105.87,566.91,102.82,564.84,102.58Z"/><path class="cls-2" d="M499.71,53.5s4.83-2.16,9.36,6c0,0,2.25,3.91-.83,4.38A17,17,0,0,0,503,66.48a4,4,0,0,0-2.83,2.26,245.37,245.37,0,0,1-15.3,22.52s-5.54,7.66-12.66,19.95A61.3,61.3,0,0,1,459.27,128s-2.41,1.84-2.27,2.6a4.58,4.58,0,0,1-1.8,2,7.55,7.55,0,0,1-4.41,1.84,8.22,8.22,0,0,0-2.94-.24,21.82,21.82,0,0,0-3.29,0s-1.78.48.49-1.3c0,0,.19-.92,1.59-1.16a2.55,2.55,0,0,0,.77-1s-.3-.45.82-.45c0,0,1.36.83,1.36-1.92,0,0-.25-.24.9-1,0,0,4-3.28,11.34-12.87,0,0,6.75-8.06,10.46-15.71,0,0,3.15-4.68,6.51-10.07,0,0,10.13-16.39,11.82-20.16,0,0-11.67-1.49-12.1-7,0,0-.19-1.78,1.54-.34,0,0,6,2.27,12.73-2.12A15,15,0,0,0,499.71,53.5Z"/><path class="cls-2" d="M485.4,113.82s-6.9-4.09-4.4-4.91c0,0,4.64-1.84,9.76,3.67a14.5,14.5,0,0,0,1.67,3.85s1,1.69,6.31,7.51c0,0,.66,1,.78-1l.23-3.24s.73-2.22,2-1.79a.79.79,0,0,0,1.46-.28,17.55,17.55,0,0,0,4-5.54s1.83-3.54.38-4.54c0,0-4.25-2.22-6.07-3.52,0,0-2.94-.69-1.44-1.53a14.79,14.79,0,0,1,4.53-.69s6.51-1,8-3.62c0,0,.28-2.31,2-1.68,0,0,4,1.79,5.53,1.06,0,0,7.2.33,8.37,7.38a6.86,6.86,0,0,0,.53,2.16s.86,2.28-2.13,2.86c0,0-6.55,4.43-7.76,6.94,0,0-2.35,5.06-1.16,7.33a3.37,3.37,0,0,1-1.54,4.49,6.22,6.22,0,0,1-3.9,1s-3-.78-5.44,2.7c0,0-.15,1.21-2.17-.09,0,0-.06-.58-1.59-.58a2.26,2.26,0,0,1-1.39-1.64,5.39,5.39,0,0,0-3.37-2.75s-.87.53-2.19-1.45c0,0-3.61-5.83-5.59-8.28C490.83,117.59,488.53,114.35,485.4,113.82Z"/><path class="cls-2" d="M823.94,134.15h-2.86a30.32,30.32,0,0,1-3.68-15.37q-.14-9.27,3.68-15.65h2.86a32.7,32.7,0,0,0-3.81,15.78Q820.13,127.88,823.94,134.15Z"/><path class="cls-2" d="M829.84,114.55c5-3.53,8.12-7.34,9.39-11.42l2.45,1.37c.36.17.41.31.14.41l-.14.14a3.49,3.49,0,0,0-1.64,1.49,18.08,18.08,0,0,1-1.76,2.59v10.06c0,.18,0,.72.12,1.64a7.36,7.36,0,0,1,.14,1.22H836.1a22.52,22.52,0,0,0,.28-2.85v-7.62l-1.51,1.51a37.64,37.64,0,0,1-2.84,2.85A6.22,6.22,0,0,0,829.84,114.55Zm4,10.34h11.29v-1c0-.45-.1-1.49-.28-3.12l2.73.4c.26,0,.4.05.4.14s-.14.23-.4.41-.55,1-.55,2.57v.55h11.16c.73,0,1.67,0,2.86-.14v2.19a7.54,7.54,0,0,1-1.23-.14,10.07,10.07,0,0,0-1.62-.14H847v4.9c0,.36,0,1,.14,2a3.92,3.92,0,0,1,.13.82H844.8a22.38,22.38,0,0,0,.28-2.85v-4.9H833.79a17.1,17.1,0,0,0-2.85.28v-2.19A19.68,19.68,0,0,0,833.79,124.89Zm12.91-13.46v-4.9c0-.54,0-1.63-.13-3.26l2.58.41c.27.09.4.18.4.27l-.27.27c-.36.28-.54,1.13-.54,2.59v3.67a30.89,30.89,0,0,0,8-5.17l1.9,2c.19.28.23.41.15.41a1.47,1.47,0,0,1-.81.14,7.5,7.5,0,0,0-2.59,1.09,67.55,67.55,0,0,1-6.67,3.67V117c-.45,1.45,1,2.12,4.36,2,3.44.18,5.11-.59,5-2.32a7.63,7.63,0,0,0,.28-1.76,17.89,17.89,0,0,0,2.58.83,1.55,1.55,0,0,0-.13.67c-.19.64-.37,1.18-.55,1.63q-.83,3.13-6,2.86c-2.62,0-4.21,0-4.77-.13-1.81-.27-2.76-1.23-2.85-2.87v-4.62c-1.62.63-3.16,1.21-4.62,1.77a16,16,0,0,0-1.37-1.49l-.4-.41A46,46,0,0,0,846.7,111.43Z"/><path class="cls-2" d="M876.49,102.3l2.45.68c.37.18.55.32.55.41s-.23.22-.68.41a2.15,2.15,0,0,0-1,1.23c-.09.27-.21.73-.41,1.36a9.68,9.68,0,0,0-.54,1.5h15.5a14.47,14.47,0,0,0,1.62-.14,9.81,9.81,0,0,1,1.38-.13v2.17a8.72,8.72,0,0,1-1.38-.13,13.37,13.37,0,0,0-1.62-.14H876.1c-1,2.18-2.38,5-4.09,8.56h7.75v-2.3c0-1.28,0-2.45-.14-3.55l2.59.28c.28.08.41.17.41.27s-.19.22-.55.4a6.22,6.22,0,0,0-.26,2.59v2.3h7.33a20.86,20.86,0,0,0,3.13-.26V120c-1.09-.11-2.08-.15-3-.15h-7.47V131.4c.36,1.91-1.41,2.95-5.32,3.14a5.67,5.67,0,0,0-.94-2.73q4.89,1,4.21-.95v-11h-7.62a5.56,5.56,0,0,0-2.45.68l-1.09-2.31a4.5,4.5,0,0,0,2-1.91,47.81,47.81,0,0,0,3.12-6.8h-6a17.2,17.2,0,0,0-1.91.14,5.68,5.68,0,0,1-1.09.13V107.6a9.56,9.56,0,0,1,1.36.13,14.51,14.51,0,0,0,1.64.14h6.8A27.11,27.11,0,0,0,876.49,102.3ZM864.95,131a16.84,16.84,0,0,0,9-7.75l2.32,1.36.4.27a1.82,1.82,0,0,1-.68.27,4.61,4.61,0,0,0-1.49,1.22,46.38,46.38,0,0,1-7.22,6.53A3.28,3.28,0,0,0,864.95,131Zm19.85-5.71,1.49-1.9a65.6,65.6,0,0,1,8.71,7.21l-1.78,1.5A59.63,59.63,0,0,0,884.8,125.28Z"/><path class="cls-2" d="M903.09,103.13h2.85q3.8,6.4,3.66,15.65a30.4,30.4,0,0,1-3.66,15.37h-2.85a28.89,28.89,0,0,0,3.81-15.24A32.82,32.82,0,0,0,903.09,103.13Z"/><path class="cls-2" d="M289.57,169.41l.58,7.83h-.58a9.84,9.84,0,0,0-3.32-5.09,8.61,8.61,0,0,0-5.17-1.55,9.1,9.1,0,0,0-4.57,1.16,7.91,7.91,0,0,0-3.22,3.71,15.14,15.14,0,0,0-1.17,6.32,12.36,12.36,0,0,0,1.11,5.42,7.77,7.77,0,0,0,3.33,3.51,10.33,10.33,0,0,0,5.07,1.22,9.48,9.48,0,0,0,4.36-1,13.71,13.71,0,0,0,4.16-3.82l.58.34a12.66,12.66,0,0,1-4.47,4.52,12.18,12.18,0,0,1-6,1.43q-6.32,0-9.79-4.24a11.38,11.38,0,0,1-2.58-7.43,12.14,12.14,0,0,1,1.7-6.32,11.77,11.77,0,0,1,4.68-4.47,13.71,13.71,0,0,1,6.53-1.59,13,13,0,0,1,5.42,1.21,3.14,3.14,0,0,0,1.12.38,1.32,1.32,0,0,0,.89-.32,2.61,2.61,0,0,0,.69-1.27Z"/><path class="cls-2" d="M299.49,180.58H311.3V174a7.16,7.16,0,0,0-.24-2.33,1.58,1.58,0,0,0-.79-.73,3.6,3.6,0,0,0-1.7-.41h-.9v-.61h10.84v.61h-.89a3.79,3.79,0,0,0-1.7.4,1.45,1.45,0,0,0-.81.83,7.44,7.44,0,0,0-.21,2.25v14.87a7.29,7.29,0,0,0,.24,2.33,1.68,1.68,0,0,0,.76.73,3.86,3.86,0,0,0,1.73.41h.89V193H307.67v-.62h.9a2.76,2.76,0,0,0,2.26-.85,4.6,4.6,0,0,0,.46-2.62v-7H299.49v7a7.15,7.15,0,0,0,.24,2.33,1.62,1.62,0,0,0,.78.73,3.7,3.7,0,0,0,1.7.41h.91V193H292.27v-.62h.9a2.81,2.81,0,0,0,2.29-.85,4.8,4.8,0,0,0,.44-2.62V174a7.1,7.1,0,0,0-.24-2.33,1.57,1.57,0,0,0-.77-.73,3.74,3.74,0,0,0-1.72-.41h-.9v-.61h10.85v.61h-.91a3.79,3.79,0,0,0-1.7.4,1.53,1.53,0,0,0-.8.83,7.5,7.5,0,0,0-.22,2.25Z"/><path class="cls-2" d="M330.71,192.34V193H319.87v-.62h.9a2.78,2.78,0,0,0,2.28-.85,4.67,4.67,0,0,0,.45-2.62V174a7.33,7.33,0,0,0-.24-2.33,1.68,1.68,0,0,0-.77-.73,3.82,3.82,0,0,0-1.72-.41h-.9v-.61h10.84v.61h-.91a2.8,2.8,0,0,0-2.25.84,4.71,4.71,0,0,0-.47,2.63v14.87a7.14,7.14,0,0,0,.25,2.33,1.6,1.6,0,0,0,.78.73,3.66,3.66,0,0,0,1.69.41Z"/><path class="cls-2" d="M330.71,169.92h6.9l15.56,17.27v-13.3a4.22,4.22,0,0,0-.53-2.64,3,3,0,0,0-2.21-.71h-.89v-.61h8.92v.61h-.91a2.76,2.76,0,0,0-2.31.89,4.75,4.75,0,0,0-.41,2.47v19.45h-.68l-16.76-18.57V189a4.31,4.31,0,0,0,.51,2.65,3,3,0,0,0,2.21.71h.9V193h-8.91v-.62H333a2.76,2.76,0,0,0,2.33-.88,4.68,4.68,0,0,0,.41-2.47V172.93a10.59,10.59,0,0,0-1.67-1.54,6.75,6.75,0,0,0-1.67-.71,7.11,7.11,0,0,0-1.66-.15Z"/><path class="cls-2" d="M376.15,185.28h-9.9l-1.71,3.6a5.38,5.38,0,0,0-.63,2,1.16,1.16,0,0,0,.55.93,5.27,5.27,0,0,0,2.39.51V193h-8v-.62a4.71,4.71,0,0,0,2.06-.66,10.31,10.31,0,0,0,2.11-3.34l9-18.92h.66l8.86,19.16a8.58,8.58,0,0,0,1.94,3,4.17,4.17,0,0,0,2.42.78V193h-10v-.62a3.93,3.93,0,0,0,2-.46,1.15,1.15,0,0,0,.54-.95,6.57,6.57,0,0,0-.75-2.36Zm-.58-1.28-4.29-9.3-4.42,9.3Z"/><path class="cls-2" d="M411.25,170.54v-.61h8.91v.61h-.95a2.66,2.66,0,0,0-2.29,1.13,4.89,4.89,0,0,0-.39,2.46v9.33a15.06,15.06,0,0,1-.76,5.37,7,7,0,0,1-3,3.27,11.59,11.59,0,0,1-6.06,1.36,12.5,12.5,0,0,1-6.32-1.3,7.28,7.28,0,0,1-3.06-3.51,17.83,17.83,0,0,1-.6-5.66v-9a4.2,4.2,0,0,0-.64-2.79,2.81,2.81,0,0,0-2.1-.68h-1v-.61h11v.61h-1a2.65,2.65,0,0,0-2.26.9,4.74,4.74,0,0,0-.47,2.57v10a20.34,20.34,0,0,0,.27,3.07,6.17,6.17,0,0,0,1,2.7,5.29,5.29,0,0,0,2.06,1.59A7.83,7.83,0,0,0,407,192a10,10,0,0,0,4.47-1,5.56,5.56,0,0,0,2.7-2.52,13.37,13.37,0,0,0,.72-5.19V174a4.53,4.53,0,0,0-.52-2.72,2.9,2.9,0,0,0-2.16-.75Z"/><path class="cls-2" d="M419.63,169.92h6.89l15.55,17.27v-13.3a4.21,4.21,0,0,0-.52-2.64,3,3,0,0,0-2.21-.71h-.89v-.61h8.91v.61h-.91a2.76,2.76,0,0,0-2.3.89,4.79,4.79,0,0,0-.41,2.47v19.45H443l-16.76-18.57V189a4.38,4.38,0,0,0,.51,2.65,3,3,0,0,0,2.21.71h.91V193H421v-.62h.88a2.75,2.75,0,0,0,2.33-.88,4.67,4.67,0,0,0,.41-2.47V172.93a10.6,10.6,0,0,0-1.68-1.54,6.44,6.44,0,0,0-1.68-.71,7,7,0,0,0-1.64-.15Z"/><path class="cls-2" d="M459.26,192.34V193H448.41v-.62h.89a2.78,2.78,0,0,0,2.28-.85,4.71,4.71,0,0,0,.45-2.62V174a7.18,7.18,0,0,0-.24-2.33,1.67,1.67,0,0,0-.77-.73,3.82,3.82,0,0,0-1.72-.41h-.89v-.61h10.84v.61h-.91a2.8,2.8,0,0,0-2.26.84,4.69,4.69,0,0,0-.47,2.63v14.87a7,7,0,0,0,.25,2.33,1.58,1.58,0,0,0,.78.73,3.68,3.68,0,0,0,1.7.41Z"/><path class="cls-2" d="M487,169.92v.61a4.36,4.36,0,0,0-2,.79,7.19,7.19,0,0,0-1.76,2.57l-8.85,19.57h-.72l-9.49-19.83a12.41,12.41,0,0,0-1-1.89,3.59,3.59,0,0,0-1.16-.82,5.76,5.76,0,0,0-1.84-.39v-.61h10.36v.61a5.09,5.09,0,0,0-2.28.54,1.17,1.17,0,0,0-.53,1,7,7,0,0,0,.86,2.65l6.47,13.5,6-13.33a8.35,8.35,0,0,0,.88-2.74,1.24,1.24,0,0,0-.54-.94,3.76,3.76,0,0,0-1.84-.63l-.31-.05v-.61Z"/><path class="cls-2" d="M495.12,171.2v9.07h5.55a4.85,4.85,0,0,0,2.89-.59,3.48,3.48,0,0,0,1.09-2.68h.69v8h-.69a7.82,7.82,0,0,0-.53-2.16,2.24,2.24,0,0,0-1.1-.93,6.12,6.12,0,0,0-2.35-.34h-5.55v7.57a6.3,6.3,0,0,0,.15,1.86,1.14,1.14,0,0,0,.52.52,3.51,3.51,0,0,0,1.42.19h4.31a13.36,13.36,0,0,0,3.12-.26,4.84,4.84,0,0,0,1.87-1.08,12.79,12.79,0,0,0,2.38-3.17h.73L507.45,193H487.9v-.62h.9a3.81,3.81,0,0,0,1.7-.39,1.48,1.48,0,0,0,.81-.82,7.38,7.38,0,0,0,.21-2.26V173.93c0-1.47-.16-2.37-.48-2.71a3,3,0,0,0-2.25-.69h-.9v-.61h19.54l.27,5.05H507a7.41,7.41,0,0,0-.87-2.49,3,3,0,0,0-1.4-1,8.84,8.84,0,0,0-2.63-.26Z"/><path class="cls-2" d="M536,193h-6.81l-8.63-10.78c-.62,0-1.13,0-1.52,0h-.51l-.57,0v6.68c0,1.46.17,2.37.52,2.72a2.79,2.79,0,0,0,2.12.75h1V193H510.8v-.62h.95a2.62,2.62,0,0,0,2.29-1,5,5,0,0,0,.39-2.51V174c0-1.46-.17-2.36-.52-2.72a2.92,2.92,0,0,0-2.16-.75h-.95v-.61H520a24.24,24.24,0,0,1,5.95.53,6.92,6.92,0,0,1,3.25,2,4.85,4.85,0,0,1,1.34,3.42,5.07,5.07,0,0,1-1.53,3.69,8.85,8.85,0,0,1-4.71,2.21l5.26,6.59a12.4,12.4,0,0,0,3.1,3,8.44,8.44,0,0,0,3.38,1Zm-18-11.85h1a8.78,8.78,0,0,0,5.46-1.42,4.44,4.44,0,0,0,1.84-3.64,4.53,4.53,0,0,0-1.49-3.51,5.6,5.6,0,0,0-3.92-1.35,15.53,15.53,0,0,0-2.93.38Z"/><path class="cls-2" d="M552.87,169.41v8h-.69a9.11,9.11,0,0,0-1.22-3.64,6,6,0,0,0-2.49-2.16,7.48,7.48,0,0,0-3.35-.79,4.87,4.87,0,0,0-3.24,1.07,3.16,3.16,0,0,0-1.28,2.46,2.77,2.77,0,0,0,.8,1.92c.78.85,2.63,2,5.56,3.39a40.57,40.57,0,0,1,4.87,2.66,6.67,6.67,0,0,1,2,2.17,5.4,5.4,0,0,1,.7,2.63,5.71,5.71,0,0,1-2.24,4.5,8.58,8.58,0,0,1-5.76,1.9,13.75,13.75,0,0,1-2.08-.15,22.33,22.33,0,0,1-2.41-.63,12.36,12.36,0,0,0-2.31-.53,1,1,0,0,0-.74.26,2,2,0,0,0-.4,1.05h-.7v-7.91h.7a10.44,10.44,0,0,0,1.31,3.72,6,6,0,0,0,2.52,2,8.44,8.44,0,0,0,3.73.83,5.59,5.59,0,0,0,3.7-1.13,3.21,3.21,0,0,0,.84-4.37,5.47,5.47,0,0,0-1.6-1.61q-.74-.51-4-2.16a39.44,39.44,0,0,1-4.66-2.64,7.31,7.31,0,0,1-2.09-2.17,5,5,0,0,1-.7-2.61,5.4,5.4,0,0,1,2.1-4.26,8,8,0,0,1,5.36-1.8,11.78,11.78,0,0,1,4.31.9,5,5,0,0,0,1.48.41,1.21,1.21,0,0,0,.8-.27,2,2,0,0,0,.5-1.05Z"/><path class="cls-2" d="M568,192.34V193H557.15v-.62h.9a2.79,2.79,0,0,0,2.28-.85,4.74,4.74,0,0,0,.45-2.62V174a7.14,7.14,0,0,0-.25-2.33,1.66,1.66,0,0,0-.76-.73,3.84,3.84,0,0,0-1.72-.41h-.9v-.61H568v.61h-.91a2.8,2.8,0,0,0-2.25.84,4.66,4.66,0,0,0-.47,2.63v14.87a7.1,7.1,0,0,0,.25,2.33,1.57,1.57,0,0,0,.78.73,3.68,3.68,0,0,0,1.7.41Z"/><path class="cls-2" d="M590.73,169.92l.27,5.38h-.71a6,6,0,0,0-.56-2,3.61,3.61,0,0,0-1.55-1.45,5.85,5.85,0,0,0-2.53-.47h-3.58V189c0,1.41.17,2.29.51,2.65a3,3,0,0,0,2.19.71h.88V193h-10.8v-.62h.91a2.71,2.71,0,0,0,2.3-.88,4.61,4.61,0,0,0,.42-2.47V171.34h-3.07a9.22,9.22,0,0,0-2.53.24,3.46,3.46,0,0,0-1.67,1.24,4.69,4.69,0,0,0-.82,2.48h-.72l.28-5.38Z"/><path class="cls-2" d="M609.83,169.92h8.88v.61h-.49a4,4,0,0,0-1.42.4,5.28,5.28,0,0,0-1.71,1.13,15.8,15.8,0,0,0-1.89,2.39l-6.14,8.71V189a4.24,4.24,0,0,0,.53,2.65,3.12,3.12,0,0,0,2.27.71h.83V193H599.84v-.62h.91a2.72,2.72,0,0,0,2.3-.88,4.6,4.6,0,0,0,.42-2.47v-5.43l-6.95-9.71a21.71,21.71,0,0,0-1.68-2.12,6.85,6.85,0,0,0-1.82-1,2.9,2.9,0,0,0-1.09-.17v-.61h10.84v.61h-.56a3.66,3.66,0,0,0-1.62.38,1.21,1.21,0,0,0-.75,1.13,5.17,5.17,0,0,0,1.15,2.21l5.28,7.43,5-7.1a5,5,0,0,0,1.12-2.38,1.47,1.47,0,0,0-.27-.85,1.77,1.77,0,0,0-.78-.59,4,4,0,0,0-1.52-.21Z"/><path class="cls-2" d="M640.62,169.41a12.12,12.12,0,0,1,8.59,3.41,11.13,11.13,0,0,1,3.62,8.48,11.5,11.5,0,0,1-3.64,8.7,13.14,13.14,0,0,1-17.68.09,11.5,11.5,0,0,1-3.57-8.73,11.14,11.14,0,0,1,4.12-8.94A13,13,0,0,1,640.62,169.41Zm-.35,1.2a7,7,0,0,0-5.48,2.29c-1.72,1.9-2.57,4.7-2.57,8.37s.88,6.66,2.66,8.68a6.87,6.87,0,0,0,5.4,2.31,7.69,7.69,0,0,0,5.92-2.53q2.33-2.53,2.33-8c0-3.94-.84-6.88-2.57-8.82A7.24,7.24,0,0,0,640.27,170.61Z"/><path class="cls-2" d="M661.7,171.2v9h4.63a3.57,3.57,0,0,0,2.34-.63,4,4,0,0,0,1-2.52h.69v7.83h-.69a4.15,4.15,0,0,0-.4-2,2.3,2.3,0,0,0-1-1,4.72,4.72,0,0,0-1.93-.31H661.7v7.22a6.86,6.86,0,0,0,.25,2.33,1.56,1.56,0,0,0,.76.73,3.81,3.81,0,0,0,1.71.41h.91V193H654.49v-.62h.9a2.77,2.77,0,0,0,2.28-.85,4.73,4.73,0,0,0,.45-2.62V174a6.9,6.9,0,0,0-.25-2.33,1.67,1.67,0,0,0-.76-.73,3.79,3.79,0,0,0-1.72-.41h-.9v-.61h18.87l.27,5.05H673a6.51,6.51,0,0,0-1.13-2.35,3.7,3.7,0,0,0-1.59-1.09,9.31,9.31,0,0,0-2.95-.34Z"/><path class="cls-2" d="M691.83,182.17v6.7c0,1.46.18,2.37.52,2.72a2.81,2.81,0,0,0,2.14.75h1V193H684.61v-.62h1a2.62,2.62,0,0,0,2.29-1,5.21,5.21,0,0,0,.37-2.51V174a4.61,4.61,0,0,0-.5-2.72,2.92,2.92,0,0,0-2.16-.75h-1v-.61h9.3a18.41,18.41,0,0,1,5.38.63,7.57,7.57,0,0,1,3.31,2.16,5.23,5.23,0,0,1,1.35,3.59,5.77,5.77,0,0,1-2.05,4.58,8.53,8.53,0,0,1-5.79,1.78,15.5,15.5,0,0,1-2-.12A22.82,22.82,0,0,1,691.83,182.17Zm0-1c.67.11,1.24.2,1.76.25a12.15,12.15,0,0,0,1.31.09,4.68,4.68,0,0,0,3.36-1.36,4.73,4.73,0,0,0,1.41-3.54,5.83,5.83,0,0,0-.68-2.77,4.38,4.38,0,0,0-1.9-1.92,6,6,0,0,0-2.81-.63,11.57,11.57,0,0,0-2.45.33Z"/><path class="cls-2" d="M712.89,171.2v9.07h5.56a4.93,4.93,0,0,0,2.9-.59,3.5,3.5,0,0,0,1.07-2.68h.69v8h-.69a8.35,8.35,0,0,0-.51-2.16,2.33,2.33,0,0,0-1.12-.93,6,6,0,0,0-2.35-.34h-5.56v7.57A6.65,6.65,0,0,0,713,191a1.14,1.14,0,0,0,.53.52,3.54,3.54,0,0,0,1.43.19h4.3a13.42,13.42,0,0,0,3.13-.26,4.86,4.86,0,0,0,1.86-1.08,12.7,12.7,0,0,0,2.39-3.17h.73L725.22,193H705.68v-.62h.9a3.74,3.74,0,0,0,1.69-.39,1.41,1.41,0,0,0,.81-.82,7,7,0,0,0,.23-2.26V173.93c0-1.47-.17-2.37-.49-2.71a3.05,3.05,0,0,0-2.25-.69h-.9v-.61h19.53l.27,5.05h-.73a7.43,7.43,0,0,0-.87-2.49,2.93,2.93,0,0,0-1.41-1,8.78,8.78,0,0,0-2.63-.26Z"/><path class="cls-2" d="M750.08,169.92l.26,5.38h-.72a6.26,6.26,0,0,0-.55-2,3.63,3.63,0,0,0-1.54-1.45,5.9,5.9,0,0,0-2.53-.47h-3.57V189a4.36,4.36,0,0,0,.5,2.65,3,3,0,0,0,2.2.71H745V193H734.21v-.62h.92a2.74,2.74,0,0,0,2.31-.88,4.69,4.69,0,0,0,.41-2.47V171.34h-3.06a9.22,9.22,0,0,0-2.53.24,3.43,3.43,0,0,0-1.67,1.24,4.87,4.87,0,0,0-.82,2.48H729l.26-5.38Z"/><path class="cls-2" d="M776.84,193H770l-8.62-10.78c-.62,0-1.13,0-1.52,0h-.53l-.56,0v6.68c0,1.46.17,2.37.51,2.72a2.82,2.82,0,0,0,2.13.75h1V193H751.59v-.62h1a2.61,2.61,0,0,0,2.28-1,5,5,0,0,0,.39-2.51V174c0-1.46-.16-2.36-.52-2.72a2.87,2.87,0,0,0-2.15-.75h-1v-.61h9.23a24.26,24.26,0,0,1,5.95.53,7,7,0,0,1,3.25,2,4.88,4.88,0,0,1,1.34,3.42,5.09,5.09,0,0,1-1.53,3.69,8.85,8.85,0,0,1-4.72,2.21l5.27,6.59a12.42,12.42,0,0,0,3.09,3,8.42,8.42,0,0,0,3.37,1Zm-18-11.85h1a8.76,8.76,0,0,0,5.46-1.42,4.45,4.45,0,0,0,1.84-3.64,4.56,4.56,0,0,0-1.48-3.51,5.63,5.63,0,0,0-3.93-1.35,15.48,15.48,0,0,0-2.93.38Z"/><path class="cls-2" d="M790.1,169.41a12.1,12.1,0,0,1,8.59,3.41,11.15,11.15,0,0,1,3.63,8.48,11.48,11.48,0,0,1-3.67,8.7,13.12,13.12,0,0,1-17.66.09,11.5,11.5,0,0,1-3.58-8.73,11.13,11.13,0,0,1,4.12-8.94A13,13,0,0,1,790.1,169.41Zm-.35,1.2a7.06,7.06,0,0,0-5.48,2.29c-1.71,1.9-2.57,4.7-2.57,8.37s.89,6.66,2.66,8.68a6.88,6.88,0,0,0,5.4,2.31,7.7,7.7,0,0,0,5.92-2.53c1.55-1.69,2.34-4.35,2.34-8q0-5.91-2.57-8.82A7.29,7.29,0,0,0,789.75,170.61Z"/><path class="cls-2" d="M825.35,186.59l.62.12L823.81,193H804.16v-.62h1a2.62,2.62,0,0,0,2.28-.95,5.08,5.08,0,0,0,.4-2.52V174a4.51,4.51,0,0,0-.53-2.72,2.86,2.86,0,0,0-2.15-.75h-1v-.61h11.46v.61a7.73,7.73,0,0,0-2.83.34,2.22,2.22,0,0,0-1.13.9,7,7,0,0,0-.28,2.58v14.5a4.57,4.57,0,0,0,.28,1.94,1.33,1.33,0,0,0,.71.53,13.41,13.41,0,0,0,2.91.17h1.86a15,15,0,0,0,4.1-.39,5.28,5.28,0,0,0,2.15-1.39A10.76,10.76,0,0,0,825.35,186.59Z"/><path class="cls-2" d="M834.39,171.2v9.07h5.55a4.93,4.93,0,0,0,2.9-.59,3.51,3.51,0,0,0,1.08-2.68h.69v8h-.69a8.27,8.27,0,0,0-.52-2.16,2.28,2.28,0,0,0-1.11-.93,6.06,6.06,0,0,0-2.35-.34h-5.55v7.57a6.56,6.56,0,0,0,.15,1.86,1.11,1.11,0,0,0,.53.52,3.49,3.49,0,0,0,1.42.19h4.3a13.55,13.55,0,0,0,3.13-.26,5,5,0,0,0,1.88-1.08,12.81,12.81,0,0,0,2.38-3.17h.73L846.72,193H827.17v-.62h.89a3.77,3.77,0,0,0,1.7-.39,1.48,1.48,0,0,0,.82-.82,7.65,7.65,0,0,0,.21-2.26V173.93c0-1.47-.17-2.37-.49-2.71a3,3,0,0,0-2.25-.69h-.89v-.61H846.7L847,175h-.73a7.31,7.31,0,0,0-.87-2.49,2.87,2.87,0,0,0-1.41-1,8.8,8.8,0,0,0-2.63-.26Z"/><path class="cls-2" d="M867.75,170.54v-.61h8.91v.61h-.95a2.66,2.66,0,0,0-2.29,1.13,4.84,4.84,0,0,0-.39,2.46v9.33a15.24,15.24,0,0,1-.75,5.37,7,7,0,0,1-3,3.27,11.54,11.54,0,0,1-6,1.36,12.49,12.49,0,0,1-6.32-1.3,7.17,7.17,0,0,1-3-3.51,17.46,17.46,0,0,1-.61-5.66v-9a4.2,4.2,0,0,0-.64-2.79,2.81,2.81,0,0,0-2.1-.68h-1v-.61h11v.61h-1a2.65,2.65,0,0,0-2.26.9,4.72,4.72,0,0,0-.48,2.57v10a20.42,20.42,0,0,0,.28,3.07,6.22,6.22,0,0,0,1,2.7,5.17,5.17,0,0,0,2.06,1.59,7.8,7.8,0,0,0,3.29.63,10,10,0,0,0,4.47-1,5.6,5.6,0,0,0,2.7-2.52,13.28,13.28,0,0,0,.73-5.19V174a4.51,4.51,0,0,0-.52-2.72,2.91,2.91,0,0,0-2.16-.75Z"/><path class="cls-2" d="M892.37,193l-9.8-19.39V189a4.39,4.39,0,0,0,.5,2.65,3,3,0,0,0,2.21.71h.91V193h-8.91v-.62h.91a2.73,2.73,0,0,0,2.31-.88,4.67,4.67,0,0,0,.41-2.47v-15.1a4.59,4.59,0,0,0-.39-2.2,2,2,0,0,0-1-.82,5.83,5.83,0,0,0-2.27-.33v-.61h7.24l9.19,18,9.07-18H910v.61h-.88a2.78,2.78,0,0,0-2.33.89,4.56,4.56,0,0,0-.42,2.47V189c0,1.41.17,2.29.53,2.65a3,3,0,0,0,2.22.71H910V193H899.16v-.62h.91a2.71,2.71,0,0,0,2.31-.88,4.72,4.72,0,0,0,.41-2.47V173.57L893,193Z"/></g></g></svg>