<svg xmlns="http://www.w3.org/2000/svg" xmlns:xlink="http://www.w3.org/1999/xlink" viewBox="0 0 240.37 98.14"><defs><style>.cls-1{mask:url(#mask);filter:url(#luminosity-noclip-8);}.cls-10,.cls-12,.cls-14,.cls-2,.cls-4,.cls-6,.cls-8{mix-blend-mode:multiply;}.cls-2{fill:url(#linear-gradient);}.cls-3{mask:url(#mask-2);filter:url(#luminosity-noclip-13);}.cls-4{fill:url(#radial-gradient);}.cls-5{mask:url(#mask-3);filter:url(#luminosity-noclip-14);}.cls-6{fill:url(#radial-gradient-2);}.cls-7{mask:url(#mask-4);filter:url(#luminosity-noclip-9);}.cls-8{fill:url(#linear-gradient-2);}.cls-9{mask:url(#mask-5);filter:url(#luminosity-noclip-10);}.cls-10{fill:url(#linear-gradient-3);}.cls-11{mask:url(#mask-6);filter:url(#luminosity-noclip-11);}.cls-12{fill:url(#linear-gradient-4);}.cls-13{mask:url(#mask-7);filter:url(#luminosity-noclip-12);}.cls-14{fill:url(#linear-gradient-5);}.cls-15{fill:url(#radial-gradient-3);}.cls-16{fill:#060404;opacity:0.1;}.cls-17{fill:url(#radial-gradient-4);}.cls-18{mask:url(#mask-8);}.cls-19{fill:url(#linear-gradient-6);}.cls-20{fill:url(#radial-gradient-5);}.cls-21{mask:url(#mask-9);}.cls-22{fill:url(#linear-gradient-7);}.cls-23{fill:url(#radial-gradient-6);}.cls-24{mask:url(#mask-10);}.cls-25{fill:url(#linear-gradient-8);}.cls-26{mask:url(#mask-11);}.cls-27{fill:url(#radial-gradient-7);}.cls-28{mask:url(#mask-12);}.cls-29{fill:url(#radial-gradient-8);}.cls-30{mask:url(#mask-13);}.cls-31{fill:url(#radial-gradient-9);}.cls-32{mask:url(#mask-14);}.cls-33{fill:url(#linear-gradient-9);}.cls-34{fill:#343535;}.cls-35{fill:#cc2e3e;}.cls-36{filter:url(#luminosity-noclip-7);}.cls-37{filter:url(#luminosity-noclip-6);}.cls-38{filter:url(#luminosity-noclip-5);}.cls-39{filter:url(#luminosity-noclip-4);}.cls-40{filter:url(#luminosity-noclip-3);}.cls-41{filter:url(#luminosity-noclip-2);}.cls-42{filter:url(#luminosity-noclip);}</style><filter id="luminosity-noclip" x="5.07" y="-8502.3" width="86.29" height="32766" filterUnits="userSpaceOnUse" color-interpolation-filters="sRGB"><feFlood flood-color="#fff" result="bg"/><feBlend in="SourceGraphic" in2="bg"/></filter><mask id="mask" x="5.07" y="-8502.3" width="86.29" height="32766" maskUnits="userSpaceOnUse"><g class="cls-42"/></mask><linearGradient id="linear-gradient" x1="20.8" y1="-21.59" x2="33.49" y2="60.14" gradientTransform="matrix(0.92, 0.15, -0.16, 0.99, 26.19, 2.65)" gradientUnits="userSpaceOnUse"><stop offset="0.16" stop-color="#999"/><stop offset="0.16" stop-color="#969696"/><stop offset="0.21" stop-color="#6e6e6e"/><stop offset="0.26" stop-color="#4c4c4c"/><stop offset="0.31" stop-color="#303030"/><stop offset="0.37" stop-color="#1b1b1b"/><stop offset="0.44" stop-color="#0c0c0c"/><stop offset="0.51" stop-color="#030303"/><stop offset="0.62"/></linearGradient><filter id="luminosity-noclip-2" x="2.08" y="-8502.3" width="36.47" height="32766" filterUnits="userSpaceOnUse" color-interpolation-filters="sRGB"><feFlood flood-color="#fff" result="bg"/><feBlend in="SourceGraphic" in2="bg"/></filter><mask id="mask-2" x="2.08" y="-8502.3" width="36.47" height="32766" maskUnits="userSpaceOnUse"><g class="cls-41"/></mask><radialGradient id="radial-gradient" cx="5.98" cy="55.93" fx="21.53443267796202" r="27.25" gradientTransform="matrix(0.92, 0.15, -0.16, 0.99, 26.19, 2.65)" gradientUnits="userSpaceOnUse"><stop offset="0" stop-color="#9e9e9e"/><stop offset="0.32" stop-color="#a3a3a3"/><stop offset="0.84"/></radialGradient><filter id="luminosity-noclip-3" x="11.6" y="-8502.3" width="78.66" height="32766" filterUnits="userSpaceOnUse" color-interpolation-filters="sRGB"><feFlood flood-color="#fff" result="bg"/><feBlend in="SourceGraphic" in2="bg"/></filter><mask id="mask-3" x="11.6" y="-8502.3" width="78.66" height="32766" maskUnits="userSpaceOnUse"><g class="cls-40"/></mask><radialGradient id="radial-gradient-2" cx="46.52" cy="64.18" fy="70.60438362891271" r="29.21" gradientTransform="matrix(0.92, 0.15, -0.16, 0.99, 26.19, 2.65)" gradientUnits="userSpaceOnUse"><stop offset="0" stop-color="#a3a3a3"/><stop offset="0.54" stop-color="#fff"/><stop offset="0.58" stop-color="#efefef"/><stop offset="0.67" stop-color="#c6c6c6"/><stop offset="0.79" stop-color="#838383"/><stop offset="0.94" stop-color="#282828"/><stop offset="1"/></radialGradient><filter id="luminosity-noclip-4" x="0.65" y="-8502.3" width="37.06" height="32766" filterUnits="userSpaceOnUse" color-interpolation-filters="sRGB"><feFlood flood-color="#fff" result="bg"/><feBlend in="SourceGraphic" in2="bg"/></filter><mask id="mask-4" x="0.65" y="-8502.3" width="37.06" height="32766" maskUnits="userSpaceOnUse"><g class="cls-39"/></mask><linearGradient id="linear-gradient-2" x1="-26.03" y1="66.14" x2="21.04" y2="55.28" gradientTransform="matrix(0.92, 0.15, -0.16, 0.99, 26.19, 2.65)" gradientUnits="userSpaceOnUse"><stop offset="0" stop-color="#6b6b6b"/><stop offset="0.06" stop-color="#5b5b5b"/><stop offset="0.23" stop-color="#343434"/><stop offset="0.38" stop-color="#171717"/><stop offset="0.52" stop-color="#060606"/><stop offset="0.62"/></linearGradient><filter id="luminosity-noclip-5" x="11.18" y="-8502.3" width="78.98" height="32766" filterUnits="userSpaceOnUse" color-interpolation-filters="sRGB"><feFlood flood-color="#fff" result="bg"/><feBlend in="SourceGraphic" in2="bg"/></filter><mask id="mask-5" x="11.18" y="-8502.3" width="78.98" height="32766" maskUnits="userSpaceOnUse"><g class="cls-38"/></mask><linearGradient id="linear-gradient-3" x1="64.83" y1="98.96" x2="40.9" y2="68.48" gradientTransform="matrix(0.92, 0.15, -0.16, 0.99, 26.19, 2.65)" gradientUnits="userSpaceOnUse"><stop offset="0" stop-color="#707070"/><stop offset="0.32" stop-color="#414141"/><stop offset="0.61" stop-color="#1e1e1e"/><stop offset="0.85" stop-color="#080808"/><stop offset="1"/></linearGradient><filter id="luminosity-noclip-6" x="47.83" y="-8502.3" width="36.18" height="32766" filterUnits="userSpaceOnUse" color-interpolation-filters="sRGB"><feFlood flood-color="#fff" result="bg"/><feBlend in="SourceGraphic" in2="bg"/></filter><mask id="mask-6" x="47.83" y="-8502.3" width="36.18" height="32766" maskUnits="userSpaceOnUse"><g class="cls-37"/></mask><linearGradient id="linear-gradient-4" x1="45.14" y1="49.1" x2="52.34" y2="10.13" gradientTransform="matrix(0.92, 0.15, -0.16, 0.99, 26.19, 2.65)" gradientUnits="userSpaceOnUse"><stop offset="0" stop-color="#ababab"/><stop offset="0.06" stop-color="#aeaeae"/><stop offset="0.53" stop-color="#bfbfbf"/><stop offset="0.57" stop-color="#b8b8b8"/><stop offset="0.63" stop-color="#a4a4a4"/><stop offset="0.71" stop-color="#838383"/><stop offset="0.79" stop-color="#565656"/><stop offset="0.89" stop-color="#1c1c1c"/><stop offset="0.93"/></linearGradient><filter id="luminosity-noclip-7" x="7.89" y="-8502.3" width="40.29" height="32766" filterUnits="userSpaceOnUse" color-interpolation-filters="sRGB"><feFlood flood-color="#fff" result="bg"/><feBlend in="SourceGraphic" in2="bg"/></filter><mask id="mask-7" x="7.89" y="-8502.3" width="40.29" height="32766" maskUnits="userSpaceOnUse"><g class="cls-36"/></mask><linearGradient id="linear-gradient-5" x1="29.57" y1="50.03" x2="-14.69" y2="10.02" gradientTransform="matrix(0.92, 0.15, -0.16, 0.99, 26.19, 2.65)" gradientUnits="userSpaceOnUse"><stop offset="0" stop-color="#bababa"/><stop offset="0.02" stop-color="#c1c1c1"/><stop offset="0.12" stop-color="#dcdcdc"/><stop offset="0.22" stop-color="#f0f0f0"/><stop offset="0.32" stop-color="#fbfbfb"/><stop offset="0.42" stop-color="#fff"/><stop offset="0.92"/></linearGradient><radialGradient id="radial-gradient-3" cx="48.56" cy="53.95" r="46.86" gradientTransform="matrix(0.92, 0.15, -0.16, 0.99, 26.19, 2.65)" gradientUnits="userSpaceOnUse"><stop offset="0" stop-color="#fff"/><stop offset="0.4" stop-color="#fafafa"/><stop offset="0.89" stop-color="#eaeaea"/><stop offset="1" stop-color="#e6e6e6"/></radialGradient><radialGradient id="radial-gradient-4" cx="220.7" cy="278.07" fy="287.7543443506846" r="71.51" gradientTransform="matrix(-0.17, -0.98, 0.92, -0.21, -169.42, 317.9)" gradientUnits="userSpaceOnUse"><stop offset="0.09" stop-color="#eb5c24"/><stop offset="0.55" stop-color="#b52040"/><stop offset="1" stop-color="#812a7b"/></radialGradient><filter id="luminosity-noclip-8" x="5.07" y="1.24" width="86.29" height="54.42" filterUnits="userSpaceOnUse" color-interpolation-filters="sRGB"><feFlood flood-color="#fff" result="bg"/><feBlend in="SourceGraphic" in2="bg"/></filter><mask id="mask-8" x="5.07" y="1.24" width="86.29" height="54.42" maskUnits="userSpaceOnUse"><g class="cls-1"><path class="cls-2" d="M47.95,55.67C33.74,44.26,18.47,27.23,5.07,8.57,7.54,2.38,13,.1,21.09,1.78L57.55,8.33l25.7,5h.08a13.21,13.21,0,0,1,8,4.41C72.92,37.06,52.38,52.25,47.95,55.67Z"/></g></mask><linearGradient id="linear-gradient-6" x1="20.8" y1="-21.59" x2="33.49" y2="60.14" gradientTransform="matrix(0.92, 0.15, -0.16, 0.99, 26.19, 2.65)" gradientUnits="userSpaceOnUse"><stop offset="0.16" stop-color="#fff"/><stop offset="0.22" stop-color="#fff"/><stop offset="0.62" stop-color="#fff"/></linearGradient><radialGradient id="radial-gradient-5" cx="206.71" cy="262.03" r="45.63" gradientTransform="matrix(-0.17, -0.98, 0.92, -0.21, -169.42, 317.9)" gradientUnits="userSpaceOnUse"><stop offset="0" stop-color="#ebf4e2"/><stop offset="0.41" stop-color="#a7cf67"/><stop offset="0.65" stop-color="#7dbb51"/><stop offset="0.82" stop-color="#589435"/><stop offset="1" stop-color="#316633"/></radialGradient><filter id="luminosity-noclip-9" x="0.65" y="39.34" width="37.06" height="47.57" filterUnits="userSpaceOnUse" color-interpolation-filters="sRGB"><feFlood flood-color="#fff" result="bg"/><feBlend in="SourceGraphic" in2="bg"/></filter><mask id="mask-9" x="0.65" y="39.34" width="37.06" height="47.57" maskUnits="userSpaceOnUse"><g class="cls-7"><path class="cls-8" d="M2.09,86.91A36.08,36.08,0,0,1,.68,75l1.44-35.7A303.22,303.22,0,0,0,37.7,65.84C28.36,72.81,16,80,2.09,86.91Z"/></g></mask><linearGradient id="linear-gradient-7" x1="-26.03" y1="66.14" x2="21.04" y2="55.28" gradientTransform="matrix(0.92, 0.15, -0.16, 0.99, 26.19, 2.65)" gradientUnits="userSpaceOnUse"><stop offset="0" stop-color="#fff"/><stop offset="0.62" stop-color="#fff"/></linearGradient><radialGradient id="radial-gradient-6" cx="188.54" cy="286.23" fy="293.0124717946816" r="50.04" gradientTransform="matrix(-0.17, -0.98, 0.92, -0.21, -169.42, 317.9)" gradientUnits="userSpaceOnUse"><stop offset="0" stop-color="#47c0ea"/><stop offset="0.5" stop-color="#009dd6"/><stop offset="0.72" stop-color="#009ad5"/><stop offset="0.91" stop-color="#0090d1"/><stop offset="1" stop-color="#0087cd"/></radialGradient><filter id="luminosity-noclip-10" x="11.18" y="50" width="78.98" height="45.67" filterUnits="userSpaceOnUse" color-interpolation-filters="sRGB"><feFlood flood-color="#fff" result="bg"/><feBlend in="SourceGraphic" in2="bg"/></filter><mask id="mask-10" x="11.18" y="50" width="78.98" height="45.67" maskUnits="userSpaceOnUse"><g class="cls-9"><path class="cls-10" d="M11.18,95.21c31.93-13.49,57.79-28,79-45.2L86.43,74.56c-1,5.84-2.67,10.08-4.78,12.59a14,14,0,0,1-2.74,2.53,11.71,11.71,0,0,1-5.84,2.19L16,95.57H15.9A11.21,11.21,0,0,1,11.18,95.21Z"/></g></mask><linearGradient id="linear-gradient-8" x1="56.02" y1="71" x2="8.46" y2="55.09" gradientTransform="matrix(0.92, 0.15, -0.16, 0.99, 26.19, 2.65)" gradientUnits="userSpaceOnUse"><stop offset="0" stop-color="#fff"/><stop offset="1" stop-color="#fff"/></linearGradient><filter id="luminosity-noclip-11" x="47.83" y="24.79" width="36.18" height="31.72" filterUnits="userSpaceOnUse" color-interpolation-filters="sRGB"><feFlood flood-color="#fff" result="bg"/><feBlend in="SourceGraphic" in2="bg"/></filter><mask id="mask-11" x="47.83" y="24.79" width="36.18" height="31.72" maskUnits="userSpaceOnUse"><g class="cls-11"><path class="cls-12" d="M81.12,24.79A402.92,402.92,0,0,1,48.18,53.31c-.1.65-.34,3.2-.34,3.2A394.79,394.79,0,0,0,84,25.25Z"/></g></mask><radialGradient id="radial-gradient-7" cx="32.75" cy="48.53" r="33.23" gradientTransform="matrix(0.92, 0.15, -0.16, 0.99, 26.19, 2.65)" gradientUnits="userSpaceOnUse"><stop offset="0" stop-color="#fff"/><stop offset="0.54" stop-color="#e13918"/><stop offset="0.86" stop-color="#d12b22"/><stop offset="1" stop-color="#c92427"/></radialGradient><filter id="luminosity-noclip-12" x="7.89" y="13.23" width="40.29" height="43.28" filterUnits="userSpaceOnUse" color-interpolation-filters="sRGB"><feFlood flood-color="#fff" result="bg"/><feBlend in="SourceGraphic" in2="bg"/></filter><mask id="mask-12" x="7.89" y="13.23" width="40.29" height="43.28" maskUnits="userSpaceOnUse"><g class="cls-13"><path class="cls-14" d="M11.68,13.82l-3.79-.6c12.63,17.14,26.8,32.67,39.94,43.28l.34-3.2C36.21,43.35,23.2,29.22,11.68,13.82Z"/></g></mask><radialGradient id="radial-gradient-8" cx="33.38" cy="48.11" r="38.94" xlink:href="#radial-gradient-7"/><filter id="luminosity-noclip-13" x="2.08" y="40" width="36.47" height="47.55" filterUnits="userSpaceOnUse" color-interpolation-filters="sRGB"><feFlood flood-color="#fff" result="bg"/><feBlend in="SourceGraphic" in2="bg"/></filter><mask id="mask-13" x="2.08" y="40" width="36.47" height="47.55" maskUnits="userSpaceOnUse"><g class="cls-3"><path class="cls-4" d="M38.55,65.42C24.5,56.65,12.19,48.17,2.52,40V41.6c8.74,7.35,19.88,15.23,33.63,23.92C27,72.38,15.69,79,2.11,85.83l0,1.73C17.68,79.79,29.35,72.6,38.55,65.42Z"/></g></mask><radialGradient id="radial-gradient-9" cx="5.41" cy="66.04" fx="20.964529954065632" r="27.25" gradientTransform="matrix(0.92, 0.15, -0.16, 0.99, 26.19, 2.65)" gradientUnits="userSpaceOnUse"><stop offset="0" stop-color="#fff"/><stop offset="0.32" stop-color="#b5d785"/><stop offset="0.84" stop-color="#c4e0af"/></radialGradient><filter id="luminosity-noclip-14" x="11.6" y="49.2" width="78.66" height="46" filterUnits="userSpaceOnUse" color-interpolation-filters="sRGB"><feFlood flood-color="#fff" result="bg"/><feBlend in="SourceGraphic" in2="bg"/></filter><mask id="mask-14" x="11.6" y="49.2" width="78.66" height="46" maskUnits="userSpaceOnUse"><g class="cls-5"><path class="cls-6" d="M88.68,52.27l1.58-3.07c-20.43,16.56-45.81,31.14-78.66,45l1.77,1C43.4,82.31,68.12,68.5,88.68,52.27Z"/></g></mask><linearGradient id="linear-gradient-9" x1="37.73" y1="63.68" x2="71.87" y2="89.68" gradientTransform="matrix(0.92, 0.15, -0.16, 0.99, 26.19, 2.65)" gradientUnits="userSpaceOnUse"><stop offset="0" stop-color="#fff"/><stop offset="0.01" stop-color="#f9fcfe"/><stop offset="0.06" stop-color="#c7e6f4"/><stop offset="0.12" stop-color="#9cd4ec"/><stop offset="0.18" stop-color="#78c4e5"/><stop offset="0.24" stop-color="#5db8e0"/><stop offset="0.3" stop-color="#49b0dc"/><stop offset="0.36" stop-color="#3eabda"/><stop offset="0.42" stop-color="#3aa9d9"/><stop offset="0.92" stop-color="#336392"/></linearGradient></defs><title>资源 2</title><g id="图层_2" data-name="图层 2"><g id="图层_1-2" data-name="图层 1"><path class="cls-15" d="M92.39,45.62l2.28-18.11c.61-4.13-.09-7.16-1.41-9.39A348.48,348.48,0,0,1,47.7,58.19C30.8,44.85,14.86,25.68,3,9.12A20.19,20.19,0,0,0,2,15L1.27,36.66C11.36,45.78,25,55.27,40.84,65.15c-9.72,7.52-22.13,15-38.95,23.24a14.12,14.12,0,0,0,4.66,6.52C43.14,79.79,70.66,63.91,92.39,45.62Z"/><path class="cls-16" d="M88,74l4.66-30.52-1.2,1C69.19,63.24,41.32,78.78,6.08,93.34l-.89.4a11.75,11.75,0,0,0,10,3.3l57.42-3.74a13.12,13.12,0,0,0,6.78-2.53,16.36,16.36,0,0,0,3.22-3C85,84.94,86.85,80.37,88,74ZM47.55,60.23l.93-.71A360.22,360.22,0,0,0,94,19.61c-2.79-6.71-10.59-7.54-10.59-7.54l-25.74-5L27.74,1.75,21.13.57C7.55-2.23,3.56,5.88,2.43,11.06,16.28,30.33,32.19,48,46.72,59.54Zm-6,6.28L43.63,65l-2-1.28C24.69,53.2,11.66,44,2.17,35.41l-.84-.73L0,74.82c-.22,6.95.87,11.75,2.51,15.07C18.38,82.1,31.33,74.46,41.58,66.51Z"/><path class="cls-17" d="M93.26,18.12c-3.25-5.35-9.85-6-9.85-6l-25.74-5L27.74,1.75,21.13.58C9.16-1.89,4.62,4.11,3,9.12,14.86,25.68,30.8,44.85,47.7,58.19A348.48,348.48,0,0,0,93.26,18.12Z"/><g class="cls-18"><path class="cls-19" d="M47.95,55.67C33.74,44.26,18.47,27.23,5.07,8.57,7.54,2.38,13,.1,21.09,1.78L57.55,8.33l25.7,5h.08a13.21,13.21,0,0,1,8,4.41C72.92,37.06,52.38,52.25,47.95,55.67Z"/></g><path class="cls-20" d="M40.84,65.15C25,55.27,11.36,45.78,1.27,36.66L0,74.82c-.18,6,.6,10.35,1.86,13.58C18.71,80.19,31.12,72.67,40.84,65.15Z"/><g class="cls-21"><path class="cls-22" d="M2.09,86.91A36.08,36.08,0,0,1,.68,75l1.44-35.7A303.22,303.22,0,0,0,37.7,65.84C28.36,72.81,16,80,2.09,86.91Z"/></g><path class="cls-23" d="M88,74l4.37-28.36C70.66,63.91,43.14,79.79,6.55,94.92A11.88,11.88,0,0,0,15.19,97l57.43-3.75a13.06,13.06,0,0,0,6.77-2.53,16.44,16.44,0,0,0,3.22-3C85,84.94,86.85,80.37,88,74Z"/><g class="cls-24"><path class="cls-25" d="M11.18,95.21c31.93-13.49,57.79-28,79-45.2L86.43,74.56c-1,5.84-2.67,10.08-4.78,12.59a14,14,0,0,1-2.74,2.53,11.71,11.71,0,0,1-5.84,2.19L16,95.57H15.9A11.21,11.21,0,0,1,11.18,95.21Z"/></g><g class="cls-26"><path class="cls-27" d="M81.12,24.79A402.92,402.92,0,0,1,48.18,53.31c-.1.65-.34,3.2-.34,3.2A394.79,394.79,0,0,0,84,25.25Z"/></g><g class="cls-28"><path class="cls-29" d="M11.68,13.82l-3.79-.6c12.63,17.14,26.8,32.67,39.94,43.28l.34-3.2C36.21,43.35,23.2,29.22,11.68,13.82Z"/></g><g class="cls-30"><path class="cls-31" d="M38.55,65.42C24.5,56.65,12.19,48.17,2.52,40V41.6c8.74,7.35,19.88,15.23,33.63,23.92C27,72.38,15.69,79,2.11,85.83l0,1.73C17.68,79.79,29.35,72.6,38.55,65.42Z"/></g><g class="cls-32"><path class="cls-33" d="M88.68,52.27l1.58-3.07c-20.43,16.56-45.81,31.14-78.66,45l1.77,1C43.4,82.31,68.12,68.5,88.68,52.27Z"/></g><path class="cls-34" d="M171.7,18.31c-.89-1.07-2.62-1.69-5.19-1.86l-37.9,0h-.07c-4.11.32-6.75,2.27-7.42,5.48l-2.35,11.13c-.42,2-.12,3.49.9,4.37a5.16,5.16,0,0,0,3.41,1l.79,0h3.78l-.86.73c-3.51,2.94-8.48,5.71-14.77,8.25l-.06,0,1.86,3.3a54.89,54.89,0,0,0,11.05-5.39l.1-.06h11.66l-1,.74a61.2,61.2,0,0,1-26.4,11.15l-.14,0,.84,3.87c12.88-2.56,23.9-7.84,32.73-15.68l.11-.11h9.72l-.7.7c-8.09,8.1-19.52,14.18-34,18.06l-.1,0,.31,3.85h0c17.17-4.24,30.69-11.81,40.17-22.5l.12-.14h5.81a2.2,2.2,0,0,1,1.74.53,1.68,1.68,0,0,1,.19,1.42,57.59,57.59,0,0,1-2.27,8.51c-1.46,4.15-2.07,6.62-10.18,6.59a34,34,0,0,1-4.88-.35l-1.5,5.38c5.67.05,4.69,0,8.83,0,6.62-.06,10.84-2.43,13-10.86.61-2.38,1.34-5.34,2.3-9.86a4.09,4.09,0,0,0-.55-3.42c-.81-1.08-2.33-1.72-4.5-1.89H130.43l.86-.73a28.69,28.69,0,0,0,2.14-2l.12-.12,28.27,0,.88,0a8.4,8.4,0,0,0,4.79-1.24,5.42,5.42,0,0,0,2.24-3.53c0-.23.08-.48.12-.76l2.27-11.15a5.48,5.48,0,0,0,.16-.6A3.19,3.19,0,0,0,171.7,18.31Zm-6.94,14.34v.06a3.52,3.52,0,0,1-.07.61,1.41,1.41,0,0,1-.5.92,2.12,2.12,0,0,1-1.09.23,5.53,5.53,0,0,1-.71,0H125.9l-.12,0a3.76,3.76,0,0,1-.5,0,1.33,1.33,0,0,1-.83-.22c-.31-.24-.61-.81-.32-2.21,0,0,.27-1.3.49-2.31l.07-.32,40.73,0ZM167,21.83a1.93,1.93,0,0,1-.13.43l0,.05c-.05.25-.36,1.77-.58,2.81l-.07.32H125.51l.11-.5c.24-1.12.57-2.74.57-2.74.31-1.48,1.19-1.78,2.52-1.79H164.4a3.54,3.54,0,0,1,2.48.59A.93.93,0,0,1,167,21.83Z"/><path class="cls-34" d="M187.28,63.08c13.39-1.68,21.46-11.23,24.64-29.19l3.2-16.17h5.12L217,34.14c-.26,1.38-.51,2.61-.79,3.76-.2.77-1,3.62-1.32,4.72C210.3,56.75,201,64.95,187.38,67Z"/><polygon class="cls-34" points="209.91 60.49 219.53 60.49 223.11 42.21 216.58 42.21 217.36 38.25 223.88 38.25 226.96 22.53 220.45 22.53 221.23 18.57 240.37 18.56 239.59 22.52 232.09 22.53 229.02 38.24 236.53 38.24 235.76 42.2 228.25 42.2 224.69 60.49 234.22 60.49 233.45 64.45 209.14 64.46 209.91 60.49"/><path class="cls-34" d="M173.93,60.09h0c2.5-.25,5.62-.74,9.29-1.48l.27-.05,3.45-17.19h-6.43l.8-4h6.42l3-14.87H183.2l.79-4h20.15l-.79,4h-7.5l-3,14.86h6.47l-.79,4h-6.47l-3.16,15.85.63-.17c2-.52,3.89-1,5.82-1.59l1.22,3.36A105.78,105.78,0,0,1,174,64Z"/><path class="cls-34" d="M197.51,50.9c1.76-3.16,4.34-11.59,4.39-11.88.95-3.23,1.61-5.9,2.41-9.72h5.12c-2,9.39-4.15,16.3-7,22.33Z"/><path class="cls-35" d="M205,26.36c.24-1.22.47-2.45.7-3.73l.31-1.52H211c-.32,1.88-.66,3.68-1,5.25Z"/><path class="cls-34" d="M128.27,73.49h-3.09l.58-2.76h3.09Zm-.56,2.65-3.15,14.8h-3.09l3.14-14.8Z"/><path class="cls-34" d="M130.37,90.94h-1.64L133,70.73h3L134.42,78h.14a8.25,8.25,0,0,1,5.59-2.32q6.88.44,5.94,7.4-2.07,7.85-9.63,8.06c-2.32-.07-3.78-.73-4.41-2h-.13Zm12.55-7.4q1.16-5.41-3.79-5.52-4.86.11-6.17,6.3-.88,4.75,3.91,5Q141.45,89.17,142.92,83.54Z"/><path class="cls-34" d="M152.93,80.67h-2.82q1.16-4.86,8.44-5,6.37.33,5.68,4.2l-1.81,8.51q-.21,1,.89.88h.4a2.94,2.94,0,0,1,.7-.11L164,90.94h-.81a5.12,5.12,0,0,1-1,.11q-3.22,0-2.64-2.1a12,12,0,0,1-7,2.21q-5.32-.22-4.77-4.09.84-4,6.49-4.64l5.06-.44a2,2,0,0,0,2-1.77q.36-2.32-3.78-2.43Q153.78,77.91,152.93,80.67ZM160,85.86l.52-2.43a20.39,20.39,0,0,1-5.18,1q-4,.33-4.25,2.32-.68,2.54,2.55,2.54Q158.79,89.06,160,85.86Z"/><path class="cls-34" d="M183.76,80.89l-2.14,10.05h-3l1.92-9.06q1-4-3.07-3.87-4.78.33-5.73,4.86l-1.71,8.06H167l3.15-14.8h3l-.45,2.1a8.87,8.87,0,0,1,6-2.54Q184.68,75.92,183.76,80.89Z"/><path class="cls-34" d="M191.12,88l-.63,3h-3.63l.63-3Z"/><path class="cls-34" d="M211.88,81.22h-3q.12-3.09-3.48-3.2-4.88.22-6.28,5.52-1.22,5.74,3.75,5.74a5.41,5.41,0,0,0,5-3.54h3q-2.34,5.3-8.4,5.41Q194.78,90.94,196,84q1.84-8.06,10.35-8.28Q212.23,75.81,211.88,81.22Z"/><path class="cls-34" d="M229.54,80.89l-2.14,10.05h-3l1.93-9.06q1-4-3.07-3.87-4.77.33-5.73,4.86l-1.72,8.06h-3.09l3.15-14.8h3l-.45,2.1a8.86,8.86,0,0,1,6-2.54Q230.46,75.92,229.54,80.89Z"/><path class="cls-34" d="M112.42,90.61q2.34-3.42,6.57-10.05,1.41-2.21,3-4.42h-3.36L111.3,88.29h-.13l-2.25-12.15h-3.36l3.39,15a59.53,59.53,0,0,1-5.54,7h3.24C108.2,96.19,111,92.55,112.42,90.61Z"/></g></g></svg>