<?xml version="1.0" standalone="no"?><!DOCTYPE svg PUBLIC "-//W3C//DTD SVG 1.1//EN" "http://www.w3.org/Graphics/SVG/1.1/DTD/svg11.dtd"><svg t="1502280095415" class="icon" style="" viewBox="0 0 1024 1024" version="1.1" xmlns="http://www.w3.org/2000/svg" p-id="2480" xmlns:xlink="http://www.w3.org/1999/xlink" width="32" height="32"><defs><style type="text/css"></style></defs><path d="M574.85863 512l298.588469-298.588469c17.359366-17.35732 17.359366-45.500287 0-62.859653-17.35732-17.359366-45.500287-17.359366-62.859653 0L511.998977 449.139324 213.410508 150.550855c-17.35732-17.359366-45.500287-17.359366-62.859653 0-17.35732 17.359366-17.35732 45.502333 0 62.859653l298.588469 298.588469L150.549831 810.588469c-17.35732 17.359366-17.35732 45.502333 0 62.859653 17.359366 17.359366 45.502333 17.359366 62.859653 0l298.588469-298.588469 298.588469 298.588469c17.359366 17.359366 45.502333 17.359366 62.859653 0 17.359366-17.35732 17.359366-45.500287 0-62.859653L574.85863 512z" p-id="2481" fill="#8a8a8a"></path></svg>